<?xml version="1.0" encoding="UTF-8"?>
<svg width="275px" height="110px" viewBox="0 0 275 110" version="1.1" xmlns="http://www.w3.org/2000/svg" xmlns:xlink="http://www.w3.org/1999/xlink">
    <title>logo-project-bt</title>
    <g id="Symbols" stroke="none" stroke-width="1" fill="none" fill-rule="evenodd" fill-opacity="0.72">
        <g id="logo/projects/bt" fill="#000000" fill-rule="nonzero">
            <path d="M138,21 C156.773173,21 172,36.2268268 172,55 C172,73.7731732 156.77998,89 138,89 C119.22002,89 104,73.77998 104,55 C104,36.22002 119.22002,21 138,21 Z M137.986386,25.192993 C121.5003,25.192993 108.138539,38.5615616 108.138539,55.0408408 C108.138539,71.5201201 121.5003,84.8886887 137.986386,84.8886887 C154.472472,84.8886887 167.834234,71.5269269 167.834234,55.0408408 C167.834234,38.5547548 154.472472,25.192993 137.986386,25.192993 Z M130.112981,43 C134.410657,43 137.325721,45.7727139 137.325721,49.4381064 C137.325721,52.5895325 135.084936,54.009703 135.084936,54.009703 C135.084936,54.009703 138,55.4298736 138,59.1358424 C138,63.3422523 134.710337,66 130.426282,66 L121,66 L121,43 Z M156,43 L156,48.3233216 L150.635294,48.3233216 L150.635294,66 L145.142857,66 L145.142857,48.3233216 L140,48.3233216 L140,43 L156,43 Z M129.002804,56.56601 L126.217147,56.56601 L126.217147,61.0361658 L129.132212,61.0361658 C130.862179,61.0361658 131.842949,60.1773008 131.842949,58.8247574 C131.842949,57.5736548 130.984776,56.56601 129.002804,56.56601 Z M129.002804,47.490444 L126.217147,47.490444 L126.217147,51.9605998 L129.132212,51.9605998 C130.862179,51.9605998 131.842949,51.1017348 131.842949,49.7491914 C131.842949,48.4980888 130.984776,47.490444 129.002804,47.490444 Z" id="bt"></path>
        </g>
    </g>
</svg>