<?xml version="1.0" encoding="UTF-8"?>
<svg width="275px" height="110px" viewBox="0 0 275 110" version="1.1" xmlns="http://www.w3.org/2000/svg" xmlns:xlink="http://www.w3.org/1999/xlink">
    <title>logo-project-ecobee</title>
    <g id="Symbols" stroke="none" stroke-width="1" fill="none" fill-rule="evenodd" fill-opacity="0.72">
        <g id="logo/projects/ecobee" fill="#000000">
            <path d="M83.648625,50.8297917 C81.3877917,50.8297917 79.7078333,51.364 78.6087917,52.4319167 C77.5092083,53.5005417 76.939,55.1541667 76.8976667,57.3941667 L91.7684167,57.3941667 C91.726625,55.1541667 91.1564167,53.5005417 90.057375,52.4319167 C88.9577917,51.364 87.2777917,50.8297917 85.0175,50.8297917 L83.648625,50.8297917 Z M93.168375,62.7451667 C92.75325,64.3424583 91.86175,65.5604167 90.492875,66.4005417 C89.1240417,67.240625 87.3196667,67.6605417 85.07975,67.6605417 L83.5864167,67.6605417 C80.7446667,67.6605417 78.6034167,66.9400417 77.162125,65.4983333 C75.720375,64.0570833 75,61.9050833 75,59.0429167 L75,57.611875 C75,54.7497083 75.720375,52.598375 77.162125,51.1564583 C78.6034167,49.7152083 80.7446667,48.9942917 83.5864167,48.9942917 L85.07975,48.9942917 C87.9209167,48.9942917 90.0622083,49.7152083 91.5039583,51.1564583 C92.94525,52.598375 93.6661667,54.7497083 93.6661667,57.611875 L93.6661667,59.2297083 L76.8976667,59.2297083 C76.939,61.4904583 77.5092083,63.1549167 78.6087917,64.222875 C79.7078333,65.29125 81.3877917,65.825 83.648625,65.825 L85.0175,65.825 C86.6974583,65.825 88.0454167,65.566 89.0617917,65.04725 C90.07775,64.529 90.7830417,63.7614167 91.1772917,62.7451667 L93.168375,62.7451667 L93.168375,62.7451667 Z M114.824042,55.8695833 L112.926375,55.8695833 C112.656542,54.1483333 111.9775,52.8781667 110.888625,52.058625 C109.799792,51.2395833 108.259792,50.8297917 106.268792,50.8297917 L104.899917,50.8297917 C102.597708,50.8297917 100.896875,51.389875 99.7978333,52.50975 C98.6982917,53.6298333 98.1489583,55.3617083 98.1489583,57.705125 L98.1489583,58.9496667 C98.1489583,61.2935417 98.6982917,63.0249583 99.7978333,64.1450833 C100.896875,65.2649583 102.597708,65.825 104.899917,65.825 L106.268792,65.825 C108.259792,65.825 109.799792,65.4157083 110.888625,64.5961667 C111.9775,63.777125 112.656542,62.5069167 112.926375,60.7852083 L114.824042,60.7852083 C114.554292,63.067 113.704125,64.7826667 112.273042,65.9339583 C110.842,67.085 108.861125,67.6605417 106.331,67.6605417 L104.837708,67.6605417 C101.995917,67.6605417 99.8547083,66.9400417 98.4134167,65.4983333 C96.9716667,64.0570833 96.2512917,61.9050833 96.2512917,59.0429167 L96.2512917,57.611875 C96.2512917,54.7497083 96.9716667,52.598375 98.4134167,51.1564583 C99.8547083,49.7152083 101.995917,48.9942917 104.837708,48.9942917 L106.331,48.9942917 C108.861125,48.9942917 110.842,49.5697917 112.273042,50.7210417 C113.704125,51.8720833 114.554292,53.5885 114.824042,55.8695833 M119.16375,58.9496667 C119.16375,61.2935417 119.712917,63.0249583 120.8125,64.1450833 C121.911667,65.2649583 123.6125,65.825 125.914583,65.825 L127.283333,65.825 C129.585417,65.825 131.285833,65.2649583 132.385417,64.1450833 C133.484583,63.0249583 134.034167,61.2935417 134.034167,58.9496667 L134.034167,57.705125 C134.034167,55.3617083 133.484583,53.6298333 132.385417,52.50975 C131.285833,51.389875 129.585417,50.8297917 127.283333,50.8297917 L125.914583,50.8297917 C123.6125,50.8297917 121.911667,51.389875 120.8125,52.50975 C119.712917,53.6298333 119.16375,55.3617083 119.16375,57.705125 L119.16375,58.9496667 Z M117.265833,59.0429167 L117.265833,57.611875 C117.265833,54.7497083 117.98625,52.598375 119.427917,51.1564583 C120.869167,49.7152083 123.010417,48.9942917 125.8525,48.9942917 L127.345417,48.9942917 C130.186667,48.9942917 132.327917,49.7152083 133.77,51.1564583 C135.21125,52.598375 135.932083,54.7497083 135.932083,57.611875 L135.932083,59.0429167 C135.932083,61.9050833 135.21125,64.0570833 133.77,65.4983333 C132.327917,66.9400417 130.186667,67.6605417 127.345417,67.6605417 L125.8525,67.6605417 C123.010417,67.6605417 120.869167,66.9400417 119.427917,65.4983333 C117.98625,64.0570833 117.265833,61.9050833 117.265833,59.0429167 L117.265833,59.0429167 Z M140.71375,58.9496667 C140.71375,61.2935417 141.262917,63.0249583 142.3625,64.1450833 C143.46125,65.2649583 145.1625,65.825 147.464583,65.825 L148.833333,65.825 C151.135417,65.825 152.835833,65.2649583 153.935417,64.1450833 C155.034583,63.0249583 155.584167,61.2935417 155.584167,58.9496667 L155.584167,57.705125 C155.584167,55.3617083 155.034583,53.6298333 153.935417,52.50975 C152.835833,51.389875 151.135417,50.8297917 148.833333,50.8297917 L147.464583,50.8297917 C145.1625,50.8297917 143.46125,51.389875 142.3625,52.50975 C141.262917,53.6298333 140.71375,55.3617083 140.71375,57.705125 L140.71375,58.9496667 Z M147.402083,48.9942917 L148.895417,48.9942917 C151.736667,48.9942917 153.877917,49.7152083 155.319583,51.1564583 C156.76125,52.598375 157.482083,54.7497083 157.482083,57.611875 L157.482083,59.0429167 C157.482083,61.9050833 156.76125,64.0570833 155.319583,65.4983333 C153.877917,66.9400417 151.736667,67.6605417 148.895417,67.6605417 L147.402083,67.6605417 C144.560417,67.6605417 142.419167,66.9400417 140.977917,65.4983333 C139.53625,64.0570833 138.815833,61.9050833 138.815833,59.0429167 L138.815833,43 L140.71375,43 L140.71375,51.8564167 C141.35625,50.90275 142.2325,50.1873333 143.3425,49.7099167 C144.451667,49.2329583 145.805,48.9942917 147.402083,48.9942917 L147.402083,48.9942917 Z M168.73125,50.8297917 C166.470417,50.8297917 164.790417,51.364 163.69125,52.4319167 C162.591667,53.5005417 162.021667,55.1541667 161.980417,57.3941667 L176.850833,57.3941667 C176.809167,55.1541667 176.239167,53.5005417 175.14,52.4319167 C174.040417,51.364 172.360417,50.8297917 170.1,50.8297917 L168.73125,50.8297917 Z M178.250833,62.7451667 C177.835833,64.3424583 176.944167,65.5604167 175.575417,66.4005417 C174.206667,67.240625 172.402083,67.6605417 170.162083,67.6605417 L168.669167,67.6605417 C165.827083,67.6605417 163.685833,66.9400417 162.244583,65.4983333 C160.802917,64.0570833 160.0825,61.9050833 160.0825,59.0429167 L160.0825,57.611875 C160.0825,54.7497083 160.802917,52.598375 162.244583,51.1564583 C163.685833,49.7152083 165.827083,48.9942917 168.669167,48.9942917 L170.162083,48.9942917 C173.003333,48.9942917 175.144583,49.7152083 176.586667,51.1564583 C178.027917,52.598375 178.74875,54.7497083 178.74875,57.611875 L178.74875,59.2297083 L161.980417,59.2297083 C162.021667,61.4904583 162.591667,63.1549167 163.69125,64.222875 C164.790417,65.29125 166.470417,65.825 168.73125,65.825 L170.1,65.825 C171.78,65.825 173.127917,65.566 174.144167,65.04725 C175.160417,64.529 175.865833,63.7614167 176.26,62.7451667 L178.250833,62.7451667 L178.250833,62.7451667 Z M189.9825,50.8297917 C187.721667,50.8297917 186.041667,51.364 184.9425,52.4319167 C183.842917,53.5005417 183.272917,55.1541667 183.231667,57.3941667 L198.102083,57.3941667 C198.060417,55.1541667 197.490417,53.5005417 196.39125,52.4319167 C195.291667,51.364 193.611667,50.8297917 191.35125,50.8297917 L189.9825,50.8297917 Z M199.502083,62.7451667 C199.087083,64.3424583 198.195417,65.5604167 196.826667,66.4005417 C195.457917,67.240625 193.653333,67.6605417 191.41375,67.6605417 L189.920417,67.6605417 C187.078333,67.6605417 184.937083,66.9400417 183.495833,65.4983333 C182.054167,64.0570833 181.33375,61.9050833 181.33375,59.0429167 L181.33375,57.611875 C181.33375,54.7497083 182.054167,52.598375 183.495833,51.1564583 C184.937083,49.7152083 187.078333,48.9942917 189.920417,48.9942917 L191.41375,48.9942917 C194.254583,48.9942917 196.39625,49.7152083 197.837917,51.1564583 C199.279167,52.598375 200,54.7497083 200,57.611875 L200,59.2297083 L183.231667,59.2297083 C183.272917,61.4904583 183.842917,63.1549167 184.9425,64.222875 C186.041667,65.29125 187.721667,65.825 189.9825,65.825 L191.35125,65.825 C193.03125,65.825 194.379167,65.566 195.395833,65.04725 C196.411667,64.529 197.117083,63.7614167 197.51125,62.7451667 L199.502083,62.7451667 L199.502083,62.7451667 Z" id="ecobee"></path>
        </g>
    </g>
</svg>