<?xml version="1.0" encoding="UTF-8"?>
<svg width="275px" height="110px" viewBox="0 0 275 110" version="1.1" xmlns="http://www.w3.org/2000/svg" xmlns:xlink="http://www.w3.org/1999/xlink">
    <title>logo-project-grosvenor-casinos</title>
    <g id="Symbols" stroke="none" stroke-width="1" fill="none" fill-rule="evenodd" fill-opacity="0.72">
        <g id="logo/projects/grosvenor-casinos" fill="#000000" fill-rule="nonzero">
            <path d="M42.1649569,57.0084228 L42.2165002,57.5031222 L42.2165002,57.5133776 C43.1958839,66.54042 50.4742614,73.8053707 59.5052088,74.7946473 L60,74.8461683 L57.9278862,81.0084228 L57.5979847,80.9569018 C46.4639243,79.2050654 37.8041253,70.5593029 36.0515465,59.4301545 L36,59.1003956 L42.1649569,57.0084228 Z M81.8377141,57.0084228 L88,59.0814334 L87.9484787,59.4114777 C86.1966334,70.550381 77.5405715,79.2036268 66.4112443,80.9568572 L66.0814838,81.0084228 L64,74.8408346 L64.4945798,74.789269 C73.5216681,73.7991362 80.7969112,66.5280196 81.7861928,57.493164 L81.7861928,57.5034282 L81.8377141,57.0084228 Z M62.002897,39.0084228 C66.3153018,39.0084228 70.3517872,40.7469338 73.3766088,43.8973224 L74,44.5400779 L68.2773678,49.0496031 L67.7970818,48.6175625 C66.1926575,47.17414 64.1284081,46.3839588 62.002897,46.3839588 C57.1284837,46.3839588 53.1635509,50.4720541 53.1635509,55.4978809 C53.1635509,60.5237077 57.1284837,64.6118029 62.002897,64.6118029 C64.6189851,64.6118029 67.0919681,63.4212883 68.7781148,61.3455959 L70.1474204,59.5122009 L70.1474204,69.7115297 L69.7488569,69.9432164 C67.3985182,71.2918921 64.7108775,72.0084228 62.002897,72.0084228 C53.1737208,72.0084228 46,64.6118029 46,55.5083667 C46,46.4049305 53.1838907,39.0084228 62.002897,39.0084228 Z M77.5242264,51.0084228 C77.8379707,52.2818835 78,53.6175329 78,54.9840928 L77.9898057,54.9737893 C77.9898057,56.3403492 77.8278964,57.6655725 77.5140321,58.9390331 C77.3621972,59.5706117 77.1699448,60.1917641 76.9472296,60.7921869 C75.9450708,63.4736667 74.2747661,65.8135371 72.1387623,67.5943212 C71.9666587,67.7391832 71.8047493,67.8737417 71.6225714,68.0084228 L71.6225714,56.764877 L64,56.764877 L71.4099304,51.0084228 L77.5242264,51.0084228 Z M57.9080273,29.0084228 L60,35.1707295 L59.5053006,35.2222629 C50.4680028,36.201227 43.1927724,43.4765104 42.2138122,52.5138436 L42.1622912,53.0084228 L36,50.9371969 L36.0515242,50.6074367 C37.8033452,39.4781714 46.4490955,30.8220829 57.5782684,29.070252 L57.5782684,29.0599472 L57.9080273,29.0084228 Z M66.073,29.0084228 L66.4030426,29.0599249 C77.5418892,30.8109983 86.2053551,39.4633459 87.9484347,50.5878504 L88,50.917468 L81.832321,53.0084228 L81.7807557,52.5139353 L81.791142,52.5139353 C80.8112784,43.4805077 73.5401989,36.2084173 64.4950028,35.2195765 L64,35.1680776 L66.073,29.0084228 Z M97,46.5543113 C97,42.1652603 100.518929,39.0084228 104.888717,39.0084228 C107.441173,39.0084228 109.552455,39.9452902 111.296239,42.1347364 L108.869726,43.6825287 C107.840282,42.3180006 106.537795,41.6357124 104.941235,41.6357124 C102.115613,41.6357124 100.025238,43.7640867 100.025238,46.5644457 C100.025238,49.3648048 102.336138,51.4523759 104.80459,51.4523759 C106.957936,51.4523759 108.523135,50.0777134 108.733206,48.3669258 L108.733206,48.3465363 L105.319312,48.3465363 L105.319312,45.9534846 L112,45.9534846 L112,46.5135323 C112,51.0553235 109.19541,54.0084228 104.752072,54.0084228 C100.308858,54.0084228 97.0210319,50.7905013 97.0210319,46.5745801 L97,46.5543113 Z M127,53.9977776 L123.336961,53.9977776 L119.490212,48.1733021 L119.047135,48.1733021 L119.047135,53.9977776 L116,53.9977776 L116,39.0084228 L119.673921,39.0084228 C123.174887,39.0084228 125.671023,40.3614765 125.671023,43.6067239 C125.671023,45.5199953 124.612041,46.9894208 122.483322,47.8667178 L127,54.0084228 L127,53.9977776 Z M119.047135,41.5876885 L119.047135,45.8265796 L119.717064,45.8265796 C121.564906,45.8265796 122.667031,45.1500402 122.667031,43.6595747 C122.667031,42.1691091 121.672955,41.5876885 119.803606,41.5876885 L119.047135,41.5876885 Z M130,46.4727591 C130,42.3123478 133.640772,39.0084228 138.026675,39.0084228 C142.412578,39.0084228 146,42.2715133 146,46.5237418 C146,50.7759704 142.338039,54.0084228 137.930822,54.0084228 C133.523605,54.0084228 130,50.877936 130,46.4727591 Z M142.934219,46.5135936 C142.934219,43.7705516 140.773114,41.680089 137.984046,41.680089 C135.194977,41.680089 133.033998,43.8112653 133.033998,46.4931763 C133.033998,49.3279149 135.354648,51.3470499 137.941542,51.3470499 C140.741205,51.3470499 142.923499,49.2566356 142.923499,46.5135936 L142.934219,46.5135936 Z M149,50.9006409 L151.008372,49.4192837 C151.744522,50.8385393 152.81704,51.5118388 154.078922,51.5118388 C155.340679,51.5118388 156.024131,50.786747 156.024131,49.7300373 C156.024131,48.6734504 155.477345,48.0829939 153.490027,47.2335761 C151.092464,46.2183493 149.672987,45.223864 149.672987,43.0174149 C149.672987,40.8109045 151.597267,39.0084228 154.268161,39.0084228 C156.308052,39.0084228 157.769762,39.8889529 158.705615,41.2563548 L156.833908,42.9033983 C156.234549,42.0229296 155.477345,41.50497 154.383772,41.50497 C153.353362,41.50497 152.638266,42.1368235 152.638266,42.9241397 C152.638266,43.7114559 153.25868,44.1880185 155.245998,45.0374363 C157.853854,46.1147647 159,47.3371606 159,49.6989865 C159,52.3094644 156.939055,54.0084228 154.215588,54.0084228 C151.64984,54.0084228 149.841172,52.7238026 149,50.9006409 Z M167.094752,54.0084228 L161,39.0084228 L164.205982,39.0084228 L167.97367,49.0578562 L171.772703,39.0084228 L175,39.0084228 L168.831274,54.0084228 L167.094752,54.0084228 Z M178,53.9872723 L178,39.0084228 L186.956217,39.0084228 L186.956217,41.5964561 L181.064816,41.5964561 L181.064816,44.6809254 L186.728287,44.6809254 L186.728287,47.2267453 L181.064816,47.2267453 L181.064816,51.4204272 L187,51.4204272 L187,54.0084228 L178,54.0084228 L178,53.9872723 Z M202.193617,39.0084228 L205,39.0084228 L205,54.0084228 L203.082046,54.0084228 L194.745401,44.0014212 L194.806383,54.0084228 L192,54.0084228 L192,39.0084228 L193.938282,39.0084228 L202.274926,49.0365672 L202.193617,39.0084228 Z M209,46.4727591 C209,42.3123478 212.639918,39.0084228 217.026486,39.0084228 C221.411793,39.0084228 225,42.2715133 225,46.5237418 C225,50.7759704 221.33738,54.0084228 216.930632,54.0084228 C212.523885,54.0084228 209,50.877936 209,46.4727591 Z M221.933943,46.5135936 C221.933943,43.7705516 219.773451,41.680089 216.983604,41.680089 C214.195018,41.680089 212.033265,43.8112653 212.033265,46.4931763 C212.033265,49.3279149 214.353933,51.3470499 216.940722,51.3470499 C219.740659,51.3470499 221.923853,49.2566356 221.923853,46.5135936 L221.933943,46.5135936 Z M240,53.9977776 L236.337174,53.9977776 L232.489991,48.1733021 L232.04702,48.1733021 L232.04702,53.9977776 L229,53.9977776 L229,39.0084228 L232.674348,39.0084228 C236.174581,39.0084228 238.671089,40.3614765 238.671089,43.6067239 C238.671089,45.5199953 237.612314,46.9894208 235.48324,47.8667178 L240,54.0084228 L240,53.9977776 Z M232.04702,41.5876885 L232.04702,45.8265796 L232.716597,45.8265796 C234.565293,45.8265796 235.667598,45.1500402 235.667598,43.6595747 C235.667598,42.1691091 234.672835,41.5876885 232.803655,41.5876885 L232.04702,41.5876885 Z M97,64.5854816 C97,60.4375677 100.447157,57.0084228 105.043366,57.0084228 C106.376714,57.0084228 107.67744,57.3369717 108.956591,57.9631729 L109,61.2281042 C107.720849,60.1911257 106.430911,59.6778061 105.075859,59.6778061 C102.365883,59.6778061 100.089483,61.7723202 100.089483,64.5545851 C100.089483,67.3369717 102.30077,69.3493789 105.108351,69.3493789 C106.60429,69.3493789 107.644948,68.8872697 109,67.7579667 L108.956591,71.0536728 C107.742554,71.6902134 106.203206,72.0084228 104.848283,72.0084228 C100.436369,72.0084228 97.0109164,68.7230561 97.0109164,64.5854816 L97,64.5854816 Z M123.719756,72.0084228 L122.467073,68.761389 L116.479851,68.761389 L115.152837,72.0084228 L112,72.0084228 L118.549923,57.0084228 L120.651814,57.0084228 L127,72.0084228 L123.730447,72.0084228 L123.719756,72.0084228 Z M117.488286,66.3022754 L121.490458,66.3022754 L120.662505,64.1304809 C120.290851,63.1403777 119.908757,62.1396798 119.547793,61.1497028 C119.165574,62.1396798 118.77279,63.1403777 118.380006,64.1304809 L117.488286,66.3022754 Z M129,68.8996303 L130.997929,67.4222397 C131.736766,68.838123 132.808467,69.5151895 134.067683,69.5151895 C135.326775,69.5151895 136.013463,68.7868264 136.013463,67.7300193 C136.013463,66.6732122 135.472372,66.0781959 133.484922,65.2367859 C131.091624,64.2210647 129.676455,63.2258864 129.676455,61.0200112 C129.676455,58.814136 131.601524,57.0084228 134.265306,57.0084228 C136.304904,57.0084228 137.761619,57.8906757 138.698203,59.2552624 L136.835515,60.9070857 C136.232044,60.0248329 135.472372,59.5117454 134.390192,59.5117454 C133.360036,59.5117454 132.642035,60.147969 132.642035,60.9276287 C132.642035,61.7074099 133.266341,62.1896222 135.243435,63.0412429 C137.844959,64.1184715 139,65.3395006 139,67.6992656 C139,70.3053029 136.939567,72.0084228 134.21328,72.0084228 C131.64307,72.0084228 129.842888,70.7258864 129,68.8996303 Z M143,72.0084228 L143,57.0084228 L146,57.0084228 L146,72.0084228 L143,72.0084228 Z M161.186626,57.0084228 L164,57.0084228 L164,72.0084228 L162.080697,72.0084228 L153.752485,62.0013177 L153.813494,72.0084228 L151,72.0084228 L151,57.0084228 L152.94,57.0084228 L161.268453,67.0368436 L161.197456,57.0084228 L161.186626,57.0084228 Z M168,64.467337 C168,60.3018588 171.643866,57.0084228 176.026662,57.0084228 C180.410728,57.0084228 184,60.2709836 184,64.5289658 C184,68.7868264 180.33455,72.0084228 175.93017,72.0084228 C171.52579,72.0084228 168,68.8790874 168,64.4775476 L168,64.467337 Z M180.93509,64.5084228 C180.93509,61.7690387 178.770354,59.6759674 175.984764,59.6759674 C173.197905,59.6759674 171.033169,61.7997924 171.033169,64.4878799 C171.033169,67.3298572 173.359149,69.3408783 175.941597,69.3408783 C178.74877,69.3408783 180.924933,67.247807 180.924933,64.5084228 L180.93509,64.5084228 Z M187,68.8996303 L188.997288,67.4222397 C189.735791,68.838123 190.808408,69.5151895 192.067193,69.5151895 C193.325977,69.5151895 194.012699,68.7868264 194.012699,67.7300193 C194.012699,66.6732122 193.472691,66.0781959 191.484034,65.2367859 C189.090988,64.2210647 187.675626,63.2258864 187.675626,61.0200112 C187.675626,58.814136 189.601405,57.0084228 192.264456,57.0084228 C194.304895,57.0084228 195.762175,57.8906757 196.697941,59.2552624 L194.835039,60.9070857 C194.232154,60.0248329 193.472691,59.5117454 192.390211,59.5117454 C191.359512,59.5117454 190.641968,60.147969 190.641968,60.9276287 C190.641968,61.7074099 191.265812,62.1896222 193.243373,63.0412429 C195.844779,64.1184715 197,65.3395006 197,67.6992656 C197,70.3053029 194.939835,72.0084228 192.212674,72.0084228 C189.642091,72.0084228 187.842066,70.7258864 187,68.8996303 Z" id="grosvenor"></path>
        </g>
    </g>
</svg>