<?xml version="1.0" encoding="UTF-8"?>
<svg width="275px" height="110px" viewBox="0 0 275 110" version="1.1" xmlns="http://www.w3.org/2000/svg" xmlns:xlink="http://www.w3.org/1999/xlink">
    <title>logo-project-cocoon</title>
    <g id="Symbols" stroke="none" stroke-width="1" fill="none" fill-rule="evenodd" fill-opacity="0.72">
        <g id="logo/projects/cocoon" fill="#000000">
            <path d="M196.559929,47.8173175 C193.262813,47.8173175 191.49601,50.1699925 191.478578,50.1937425 L191.085355,50.7292258 L191.084892,50.0586842 L191.084892,48.4338675 L189.119858,48.4338675 L189.119858,54.9912425 L189.119858,61.8568925 L191.084892,61.8568925 L191.084892,60.3720425 L191.084892,54.9912425 C191.084892,52.1478925 193.540953,49.8343258 196.559929,49.8343258 C199.578751,49.8343258 202.034812,52.1478925 202.034812,54.9912425 L202.034812,60.3720425 L202.034812,61.8568925 L204,61.8568925 L204,54.9912425 C204,51.0354425 200.662466,47.8173175 196.559929,47.8173175 M180.003199,47.8180142 C177.44918,47.8180142 175.10311,49.0590308 173.727062,51.1381058 C173.551816,51.4034725 173.397242,51.6800808 173.260409,51.9630225 C172.804091,52.9062142 172.563746,53.9371225 172.563746,54.9911475 C172.563746,56.0453308 172.804091,57.0759225 173.260409,58.0195892 C173.397242,58.3025308 173.551816,58.5786642 173.727062,58.8445058 C175.10311,60.9232642 177.44918,62.1645975 180.003199,62.1645975 C184.105428,62.1645975 187.442807,58.9464725 187.442807,54.9911475 C187.442807,51.0358225 184.105428,47.8180142 180.003199,47.8180142 M180.003199,60.1477475 C176.984686,60.1477475 174.529088,57.8343392 174.529088,54.9911475 C174.529088,52.1479558 176.984686,49.8350225 180.003199,49.8350225 C183.021867,49.8350225 185.477465,52.1479558 185.477465,54.9911475 C185.477465,57.8343392 183.021867,60.1477475 180.003199,60.1477475 M133.66405,47.8180142 C131.11003,47.8180142 128.763806,49.0590308 127.387912,51.1381058 C126.62692,52.2882392 126.224596,53.6204558 126.224596,54.9911475 C126.224596,56.3616808 126.62692,57.6942142 127.387912,58.8445058 C128.763806,60.9232642 131.11003,62.1645975 133.66405,62.1645975 C137.766123,62.1645975 141.103503,58.9464725 141.103503,54.9911475 C141.103503,51.0358225 137.766123,47.8180142 133.66405,47.8180142 M133.66405,60.1477475 C130.645382,60.1477475 128.189784,57.8343392 128.189784,54.9911475 C128.189784,52.1479558 130.645382,49.8350225 133.66405,49.8350225 C136.682563,49.8350225 139.138315,52.1479558 139.138315,54.9911475 C139.138315,57.8343392 136.682563,60.1477475 133.66405,60.1477475 M163.44738,47.8180142 C160.89336,47.8180142 158.547136,49.0590308 157.171551,51.1381058 C156.410251,52.2882392 156.007772,53.6204558 156.007772,54.9911475 C156.007772,56.3616808 156.410251,57.6942142 157.171551,58.8445058 C158.547136,60.9232642 160.89336,62.1645975 163.44738,62.1645975 C167.549454,62.1645975 170.886833,58.9464725 170.886833,54.9911475 C170.886833,51.0358225 167.549454,47.8180142 163.44738,47.8180142 M163.44738,60.1477475 C160.428867,60.1477475 157.973114,57.8343392 157.973114,54.9911475 C157.973114,52.1479558 160.428867,49.8350225 163.44738,49.8350225 C166.465893,49.8350225 168.921645,52.1479558 168.921645,54.9911475 C168.921645,57.8343392 166.465893,60.1477475 163.44738,60.1477475 M123.831506,58.95089 C122.881693,59.69759 121.660682,60.147415 120.329679,60.147415 C117.311166,60.147415 114.855414,57.8344817 114.855414,54.99129 C114.855414,52.1480983 117.311166,49.8348483 120.329679,49.8348483 C121.654974,49.8348483 122.871512,50.2808733 123.819628,51.0215567 L125.141066,49.526415 C123.842767,48.46194 122.163433,47.81784 120.329679,47.81784 C117.775814,47.81784 115.42959,49.0591733 114.053542,51.1379317 C113.292704,52.288065 112.890225,53.6205983 112.890225,54.99129 C112.890225,56.3618233 113.292704,57.6941983 114.053542,58.8443317 C115.42959,60.9234067 117.775814,62.1644233 120.329679,62.1644233 C122.166518,62.1644233 123.848629,61.5181067 125.147699,60.450465 L123.831506,58.95089 Z M153.721866,58.95089 C152.771899,59.69759 151.550887,60.147415 150.220039,60.147415 C147.201372,60.147415 144.745619,57.8344817 144.745619,54.99129 C144.745619,52.1480983 147.201372,49.8348483 150.220039,49.8348483 C151.545334,49.8348483 152.761717,50.2808733 153.709987,51.0215567 L155.031271,49.526415 C153.732973,48.46194 152.053793,47.81784 150.220039,47.81784 C147.666019,47.81784 145.319795,49.0591733 143.943901,51.1379317 C143.18291,52.288065 142.780585,53.6205983 142.780585,54.99129 C142.780585,56.3618233 143.18291,57.6941983 143.943901,58.8443317 C145.319795,60.9234067 147.666019,62.1644233 150.220039,62.1644233 C152.056878,62.1644233 153.738835,61.5181067 155.037905,60.450465 L153.721866,58.95089 Z M88.6946433,37 C78.9223889,37 71,45.0815632 71,55.0501589 C71,65.0187545 78.9223889,73.1 88.6946433,73.1 C98.4668977,73.1 106.389287,65.0187545 106.389287,55.0501589 C106.389287,45.0815632 98.4668977,37 88.6946433,37 M88.6946433,72.1402012 C84.798075,72.1402012 81.6393351,68.9179968 81.6393351,64.9431398 C81.6393351,60.9682828 84.798075,57.7460784 88.6946433,57.7460784 C92.5912116,57.7460784 95.7499515,60.9682828 95.7499515,64.9431398 C95.7499515,68.9179968 92.5912116,72.1402012 88.6946433,72.1402012 M94.3608783,71.3724574 C97.3276085,69.4547661 99.2989401,66.0786317 99.2989401,62.2306994 C99.2989401,56.2566587 94.5513309,51.4136619 88.6946433,51.4136619 C82.8379557,51.4136619 78.0901908,56.2566587 78.0901908,62.2306994 C78.0901908,66.0786317 80.0616781,69.4547661 83.0282525,71.3724574 C78.7489105,69.2330052 75.8018017,64.7471133 75.8018017,59.5574961 C75.8018017,52.2941924 81.5739303,46.4059331 88.6946433,46.4059331 C95.8150449,46.4059331 101.587485,52.2941924 101.587485,59.5574961 C101.587485,64.7471133 98.6403761,69.2330052 94.3608783,71.3724574" id="Cocoon"></path>
        </g>
    </g>
</svg>