<?xml version="1.0" encoding="UTF-8"?>
<svg width="275px" height="110px" viewBox="0 0 275 110" version="1.1" xmlns="http://www.w3.org/2000/svg" xmlns:xlink="http://www.w3.org/1999/xlink">
    <title>logo-project-novuna</title>
    <g id="Symbols" stroke="none" stroke-width="1" fill="none" fill-rule="evenodd" fill-opacity="0.72">
        <g id="logo/projects/novuna" fill="#000000">
            <path d="M74.7267842,42 L74.7765297,42.0024883 C74.8152018,42.0034836 74.8537035,42.0044789 74.8920348,42.0081285 C74.9206556,42.0107827 74.9485948,42.0155934 74.9767045,42.0195747 C75.003792,42.0233901 75.0310498,42.0265419 75.0579669,42.0316844 C75.0891431,42.0374905 75.1196378,42.045453 75.1501325,42.0530838 C75.1739831,42.0588899 75.1978337,42.0640324 75.2213436,42.0708337 C75.2509865,42.0794599 75.279948,42.0899108 75.3089094,42.1000299 C75.3331008,42.1084901 75.3572921,42.1162868 75.3809723,42.1257423 L75.4581461,42.1599151 L75.5349791,42.1959125 C75.5574669,42.2075246 75.5791028,42.2206297 75.6010794,42.2332371 C75.6276558,42.2484987 75.6545729,42.2634286 75.6804679,42.2801831 C75.7009112,42.2932882 75.7199917,42.3077204 75.7397537,42.3218208 C75.7653079,42.3399025 75.7912028,42.3576524 75.8160756,42.377227 C75.8372004,42.3941475 75.8571327,42.4123951 75.8774058,42.430145 C75.8987009,42.4487243 75.9203368,42.4664742 75.9406099,42.4862148 C75.9688899,42.5134203 75.9952959,42.5422846 76.0215316,42.5714807 C76.0317533,42.582761 76.0429971,42.5928801 76.0528781,42.6044922 L76.0598629,42.6126207 L83.5993815,51.4175708 C84.2101275,52.1308848 84.1114882,53.1910686 83.3791041,53.7857735 C83.056269,54.047875 82.6640969,54.1759397 82.2741394,54.1759397 C81.7795799,54.1759397 81.2884277,53.9699081 80.9470233,53.5711158 L76.4535683,48.3234465 L76.4535683,65.3187353 C76.4535683,66.2473707 75.6804679,67 74.7267842,67 C73.7731005,67 73,66.2473707 73,65.3187353 L73,43.6812647 L73.0027258,43.6291762 C73.0039183,43.5930128 73.0047701,43.5568495 73.0083477,43.520852 C73.0110735,43.4918218 73.0161843,43.463621 73.0206137,43.4350884 L73.0323687,43.3592781 C73.0386721,43.3279254 73.0470198,43.2975681 73.0550268,43.2667131 C73.0608191,43.2446501 73.0659299,43.2224213 73.072574,43.2003583 C73.0817735,43.1704987 73.0926767,43.1416343 73.1034094,43.1126041 C73.1117571,43.0898776 73.1195938,43.0671511 73.1289637,43.0447563 C73.1400372,43.0183803 73.1528143,42.9929996 73.1652507,42.9672871 C73.1768352,42.9430676 73.1880791,42.9186822 73.2008562,42.8949604 L73.2407208,42.8281079 C73.255883,42.8028931 73.2708748,42.7775124 73.2875702,42.753127 C73.3015399,42.7323911 73.3170428,42.7129823 73.3320346,42.69291 C73.3500929,42.6688564 73.3676401,42.644471 73.3870613,42.6210809 C73.4051196,42.5996815 73.4245409,42.5796092 73.4436213,42.5590392 C73.4620204,42.5391327 73.4795676,42.5187286 73.4991592,42.4994858 C73.5267578,42.4722803 73.5560599,42.4472313 73.5853621,42.4220165 C73.5974578,42.4115656 73.6083609,42.4001194 73.6209677,42.3900003 C73.6684985,42.3516804 73.7144961,42.3180054 73.7621974,42.2866527 C73.8109207,42.2549683 73.8584516,42.2269334 73.9073454,42.2012209 C73.9281295,42.1902724 73.9497654,42.1814804 73.9708902,42.1713613 C74.0003627,42.1574268 74.0294945,42.1426628 74.0598189,42.1302213 C74.0863953,42.1194386 74.1134828,42.1109784 74.1402295,42.1015228 C74.1664652,42.0923991 74.1920194,42.08228 74.2187662,42.0741515 C74.2507941,42.0646959 74.2833332,42.0577287 74.3157019,42.049932 C74.3380192,42.0446236 74.3598255,42.0379881 74.3826539,42.0336751 C74.4369993,42.0228924 74.4918557,42.0147639 74.5467121,42.0091238 C74.6077015,42.002986 74.6651133,42.0003318 74.7225251,42 Z M154.066487,47.9733336 C155.019661,47.9733336 155.792178,48.743767 155.792178,49.69454 L155.792178,58.5225151 C155.792178,63.1969082 151.978972,67 147.291937,67 C142.604562,67 138.791355,63.1969082 138.791355,58.5225151 L138.791355,49.69454 C138.791355,48.743767 139.563872,47.9733336 140.517046,47.9733336 C141.47022,47.9733336 142.242737,48.743767 142.242737,49.69454 L142.242737,58.5225151 C142.242737,61.2989284 144.507675,63.557757 147.291937,63.557757 C150.075859,63.557757 152.340796,61.2989284 152.340796,58.5225151 L152.340796,49.69454 C152.340796,48.743767 153.113313,47.9733336 154.066487,47.9733336 Z M187.896671,47.755296 C190.245722,47.755296 192.400154,48.5997671 194.073231,49.9988416 L194.073231,49.7060871 C194.073231,48.755484 194.845748,47.9850505 195.798922,47.9850505 C196.752096,47.9850505 197.524613,48.755484 197.524613,49.7060871 L197.524613,65.2787936 C197.524613,66.2295666 196.752096,67 195.798922,67 C194.845748,67 194.073231,66.2295666 194.073231,65.2787936 L194.073231,64.7156997 C192.400154,66.1147742 190.245722,66.9592453 187.896671,66.9592453 C182.587638,66.9592453 178.268729,62.6518143 178.268729,57.3572706 C178.268729,52.062727 182.587638,47.755296 187.896671,47.755296 Z M107.64242,47.755296 C112.951283,47.755296 117.270533,52.062727 117.270533,57.3572706 C117.270533,62.6518143 112.951283,66.9592453 107.64242,66.9592453 C102.333558,66.9592453 98.0143078,62.6518143 98.0143078,57.3572706 C98.0143078,52.062727 102.333558,47.755296 107.64242,47.755296 Z M167.312677,47.7603903 C172.000052,47.7603903 175.813258,51.5633123 175.813258,56.238045 L175.813258,65.0453032 C175.813258,65.9959063 175.040741,66.7663398 174.087567,66.7663398 C173.134393,66.7663398 172.361876,65.9959063 172.361876,65.0453032 L172.361876,56.238045 C172.361876,53.461462 170.096939,51.2024635 167.312677,51.2024635 C164.528755,51.2024635 162.263817,53.461462 162.263817,56.238045 L162.263817,65.0453032 C162.263817,65.9959063 161.4913,66.7663398 160.538126,66.7663398 C159.584952,66.7663398 158.812435,65.9959063 158.812435,65.0453032 L158.812435,56.238045 C158.812435,51.5633123 162.625642,47.7603903 167.312677,47.7603903 Z M93.2886218,41.1739231 C94.2417958,41.1739231 95.0144831,41.9443565 95.0144831,42.8949596 L95.0144831,65.0442843 C95.0144831,65.0622843 95.0122696,65.0796051 95.0117588,65.0974352 C95.0105669,65.1346239 95.0097155,65.1716427 95.0061398,65.2084918 C95.0034155,65.2382087 94.9983074,65.2670766 94.9938804,65.2962842 C94.9901344,65.3220955 94.9870695,65.3480766 94.9821317,65.3737181 C94.9758317,65.4058124 94.9674884,65.4370577 94.9594857,65.4684727 C94.9536965,65.4912274 94.9485884,65.5139821 94.9419479,65.536567 C94.9327533,65.5669632 94.921856,65.5966802 94.9111289,65.6263972 C94.9027857,65.6496613 94.8949532,65.6729254 94.8855884,65.6956801 L94.8493208,65.7751518 L94.8137342,65.8491895 C94.8013045,65.8724536 94.7873423,65.8948687 94.7738909,65.9176234 C94.7587369,65.9434347 94.7437531,65.969246 94.7270666,65.994378 C94.7131044,66.0154346 94.6976098,66.0354723 94.682626,66.0558497 C94.6645773,66.0806421 94.6470395,66.1056044 94.6276286,66.1293779 L94.5710988,66.1930571 C94.5527096,66.2134345 94.5351718,66.2343213 94.5155907,66.2540194 C94.4880069,66.2816986 94.4587204,66.3075099 94.4294338,66.3333212 C94.4173446,66.3440193 94.4064473,66.3557363 94.3938473,66.3660948 C94.3752878,66.381208 94.3591121,66.3922457 94.3436175,66.4043023 C94.3163743,66.4251891 94.2894715,66.4464155 94.2613769,66.4656041 C94.2448607,66.4768117 94.2274931,66.4866607 94.2106363,66.4973588 C94.1820309,66.5155286 94.1534254,66.5336984 94.1239687,66.5498305 C94.1066011,66.5595097 94.0883821,66.5680003 94.0705037,66.5771701 C94.0405361,66.5924531 94.0103983,66.6073965 93.9797496,66.6208116 C93.9610198,66.6289625 93.9419495,66.6362644 93.9230495,66.6437361 C93.89189,66.6559625 93.8605603,66.6676795 93.82889,66.678038 L93.7703169,66.6960379 C93.7372845,66.7055474 93.7039115,66.7140379 93.6705385,66.7216794 C93.6516384,66.7259247 93.6329087,66.73017 93.6138384,66.733736 C93.5755275,66.7410379 93.5370464,66.7466417 93.498395,66.7513964 L93.454295,66.7570002 C93.3994679,66.7620945 93.3444706,66.7654907 93.2894732,66.7654907 C93.2741489,66.7654907 93.2589948,66.763453 93.2436704,66.7629436 C93.1982082,66.7619247 93.152746,66.7603964 93.1083054,66.7558115 L93.0642054,66.749019 C93.0187432,66.7432455 92.9734512,66.7367926 92.9291809,66.7272832 C92.9123242,66.7237172 92.8958079,66.7186228 92.8789512,66.7145474 C92.8377457,66.7043587 92.7967105,66.6940002 92.756697,66.6810946 L92.6964212,66.6590191 C92.661005,66.6461134 92.625759,66.633038 92.5915346,66.6179248 C92.5688887,66.6079059 92.5465832,66.5965286 92.5242778,66.5856607 C92.4937994,66.5705475 92.4636615,66.5550946 92.4342047,66.5382833 C92.4108777,66.5250381 92.3878912,66.5109437 92.3650749,66.4965098 C92.3373209,66.4788494 92.3102479,66.4606796 92.2836857,66.4414909 C92.2617208,66.4258683 92.2399262,66.4099061 92.2186424,66.3930947 C92.190718,66.3710193 92.1639855,66.3477552 92.1375936,66.3239816 C92.1197152,66.3080193 92.1016666,66.2925665 92.084299,66.2757552 C92.0482016,66.2406043 92.013807,66.2035854 91.9809448,66.1653779 C91.9751556,66.1587553 91.9688556,66.1531515 91.9632367,66.1463591 C91.9572772,66.1393968 91.9567664,66.1387176 91.9562556,66.1380383 L84.4003343,57.1005161 C83.7899147,56.3704977 83.8886716,55.2852343 84.6206642,54.6764611 C85.3526569,54.0678578 86.4410256,54.1661785 87.0512749,54.896027 L91.5627606,60.2922875 L91.5627606,42.8949596 C91.5627606,41.9443565 92.3354479,41.1739231 93.2886218,41.1739231 Z M132.397189,48.9718235 C132.797495,48.085409 133.842445,47.6900885 134.730746,48.0899939 C135.619387,48.4890502 136.015266,49.5310118 135.61513,50.4170866 L128.713048,65.7007745 C128.710494,65.7067179 128.706748,65.7116424 128.704023,65.7175858 C128.671842,65.7866989 128.635575,65.8539442 128.594539,65.9186422 C128.585856,65.9322271 128.576491,65.944963 128.567466,65.9583781 C128.53188,66.0111893 128.493399,66.0623025 128.452023,66.1112081 L128.420182,66.1494157 C128.371145,66.2042647 128.318701,66.2562269 128.262342,66.3049627 C128.250082,66.3156608 128.236971,66.3251703 128.224371,66.3355287 C128.178058,66.3735665 128.129701,66.4092268 128.07896,66.4426796 C128.062274,66.4535475 128.046098,66.4647551 128.029071,66.4751136 C127.967433,66.5129815 127.903752,66.5486418 127.836155,66.5793776 C127.827471,66.5831135 127.821852,66.5846418 127.816403,66.5870191 C127.75119,66.6158871 127.685125,66.6396606 127.618379,66.660038 C127.599138,66.6658115 127.579557,66.6705663 127.560146,66.6758304 C127.503276,66.6911134 127.446235,66.7033398 127.388854,66.7126794 L127.330622,66.7220191 C127.255533,66.7316983 127.180273,66.7383209 127.105354,66.7383209 L126.99123,66.7338846 L126.879065,66.7221889 C126.859654,66.7196417 126.840584,66.7162455 126.821173,66.7130191 C126.763962,66.7038493 126.707091,66.691453 126.650391,66.6763398 C126.631151,66.6712455 126.612081,66.6666606 126.59301,66.660887 C126.524051,66.6400002 126.455602,66.6157172 126.388175,66.5858305 C126.311213,66.5518682 126.24685,66.5162079 126.184531,66.4781702 L126.132769,66.4448872 C126.082199,66.4116042 126.033842,66.3762834 125.987699,66.3385854 C125.975439,66.3285665 125.962669,66.3193967 125.95058,66.3090382 C125.894391,66.260642 125.841947,66.2090194 125.792909,66.15451 C125.781501,66.141944 125.771115,66.1285289 125.760047,66.1156232 C125.718842,66.0670572 125.680361,66.0166233 125.644774,65.9641516 C125.63592,65.9509064 125.626385,65.9383403 125.617871,65.9249253 C125.576666,65.8605668 125.540228,65.793831 125.507877,65.7250575 C125.505152,65.7191141 125.501406,65.7140197 125.498682,65.7080763 L118.510783,50.4245583 C118.106561,49.5401816 118.497672,48.4965219 119.38427,48.0932203 C120.270528,47.6897489 121.317521,48.0798052 121.721913,48.9643518 L127.094286,60.714608 Z M107.64242,51.197539 C104.236671,51.197539 101.46603,53.9607069 101.46603,57.3572706 C101.46603,60.7536646 104.236671,63.5170023 107.64242,63.5170023 C111.048,63.5170023 113.818811,60.7536646 113.818811,57.3572706 C113.818811,53.9607069 111.048,51.197539 107.64242,51.197539 Z M187.896671,51.197539 C184.490921,51.197539 181.72011,53.9607069 181.72011,57.3572706 C181.72011,60.7536646 184.490921,63.5170023 187.896671,63.5170023 C191.30242,63.5170023 194.073231,60.7536646 194.073231,57.3572706 C194.073231,53.9607069 191.30242,51.197539 187.896671,51.197539 Z M200.270054,39 C201.949942,39 203,40.1779803 203,41.6570359 C203,43.1228463 201.963053,44.3269775 200.296276,44.3269775 C198.65572,44.3269775 197.592892,43.149167 197.592892,41.6701114 C197.592892,40.1910558 198.65572,39 200.270054,39 Z M200.270054,39.4450752 C198.905166,39.4450752 198.065222,40.4136783 198.065222,41.6701114 C198.065222,42.9134691 198.905166,43.8951476 200.296276,43.8951476 C201.700666,43.8951476 202.5275,42.9265445 202.5275,41.6570359 C202.5275,40.400433 201.687555,39.4450752 200.270054,39.4450752 Z M200.440835,40.2564331 C201.057555,40.2564331 201.424998,40.6622819 201.424998,41.1465835 C201.424998,41.5522624 201.201774,41.8533377 200.926276,41.9581112 L201.516944,43.0836199 L201.004941,43.0836199 L200.493108,42.0627149 L199.863108,42.0627149 L199.863108,43.0836199 L199.377667,43.0836199 L199.377667,40.2564331 Z M200.401332,40.6753574 L199.863108,40.6753574 L199.863108,41.6439605 L200.401332,41.6439605 C200.729444,41.6439605 200.913165,41.4215078 200.913165,41.1596589 C200.913165,40.8847346 200.716333,40.6753574 200.401332,40.6753574 Z" id="novuna"></path>
        </g>
    </g>
</svg>