<?xml version="1.0" encoding="UTF-8"?>
<svg width="275px" height="110px" viewBox="0 0 275 110" version="1.1" xmlns="http://www.w3.org/2000/svg" xmlns:xlink="http://www.w3.org/1999/xlink">
    <title>logo-project-toshiba</title>
    <g id="Symbols" stroke="none" stroke-width="1" fill="none" fill-rule="evenodd" fill-opacity="0.72">
        <g id="logo/projects/toshiba" fill="#000000" fill-rule="nonzero">
            <path d="M198.221887,64.25 L204,64.25 L198.037924,45.0003272 L189.826482,45 L183.864407,64.2496728 L189.644192,64.2496728 L190.697798,60.6863728 L197.163264,60.6863728 L198.221887,64.2496728 M191.948747,56.4059956 L193.915479,49.7553203 L193.948927,49.7553203 L195.91566,56.4059956 L191.948747,56.4059956 Z M100.245675,64.8 C106.118952,64.8 108.957923,63.7847403 109.36018,58.5841743 C109.456192,57.3466946 109.474493,56.0762392 109.474493,54.898538 C109.476056,53.7248979 109.456192,52.453143 109.36018,51.2158257 C108.957923,46.0136352 106.118952,45 100.245675,45 C94.372398,45 91.5350821,46.0136352 91.1344809,51.2158257 C91.0368137,52.453143 91.0169492,53.7248979 91.0169492,54.898538 C91.0186045,56.0762392 91.0368137,57.3466946 91.1344809,58.5841743 C91.5350821,63.7847403 94.372398,64.8 100.245675,64.8 M96.5525292,54.898538 C96.5525292,53.8490032 96.5790153,53.2286389 96.6021905,52.7682796 C96.7511744,49.8181787 97.9380796,49.4742899 100.245675,49.4742899 C102.554926,49.4742899 103.741831,49.8181787 103.889159,52.7682796 C103.912335,53.2284765 103.940476,53.8488408 103.940476,54.898538 C103.940476,55.9514841 103.912335,56.5729855 103.889159,57.0322077 C103.741831,59.982796 102.554926,60.3273345 100.245675,60.3273345 C97.9380796,60.3273345 96.7511744,59.982796 96.6021905,57.0322077 C96.5790153,56.5729855 96.5525292,55.9514841 96.5525292,54.898538 L96.5525292,54.898538 Z M72,45.55 L72,50.3488386 L77.7788943,50.3488386 L77.7788943,64.8 L83.5599245,64.8 L83.5599245,50.3488386 L89.3389831,50.3488386 L89.3389831,45.55 L72,45.55 M160.932203,64.25 L160.932203,45 L155.338983,45 L155.338983,64.25 L160.932203,64.25 M139.009412,52.0282738 L139.009412,45 L133.525424,45 L133.525424,64.25 L139.009412,64.25 L139.009412,56.8269492 L145.38207,56.8269492 L145.38207,64.25 L150.864407,64.25 L150.864407,45 L145.38207,45 L145.38207,52.0282738 L139.009412,52.0282738 M179.072333,54.4590443 C181.505384,53.8454066 182.219342,52.4115295 182.219342,50.3390213 C182.219342,46.1422328 179.542822,45.3435787 175.737787,45.3435787 L165.875623,45.3435787 L165.875623,64.439218 L176.226371,64.439218 C180.992124,64.439218 182.594417,62.4137754 182.594417,59.2985213 C182.594417,57.1265262 182.091027,55.2101459 179.072333,54.4585574 M171.335593,56.5958213 L175.122532,56.5958213 C176.652443,56.5958213 176.971585,57.2570115 176.971585,58.3323787 C176.971585,59.4087197 176.372782,60.0716951 175.122532,60.0716951 L171.335593,60.0716951 L171.335593,56.5958213 Z M171.335593,49.7104525 L175.122532,49.7104525 C176.111216,49.7104525 176.72318,50.1731557 176.72318,51.2860131 C176.72318,52.2399836 176.117797,52.8271672 175.122532,52.8271672 L171.335593,52.8271672 L171.335593,49.7104525 Z M112.925922,58.1730049 L118.132552,58.1730049 C118.137488,59.0993852 118.257577,59.718541 118.71326,60.0604967 C119.231456,60.4457852 119.695364,60.5730246 121.2335,60.5730246 C122.714058,60.5730246 124.336092,60.5730246 124.336092,58.7739836 C124.336092,57.3552 123.429661,57.0314213 121.75663,56.9434574 C117.607777,56.7266311 116.107478,56.6109148 114.562762,55.4787443 C113.50992,54.7067066 112.963759,53.2036918 112.963759,51.1711082 C112.963759,47.7147098 114.186042,46.5022033 115.949551,45.656159 C117.768993,44.7828492 124.910219,44.7828492 126.831655,45.656159 C129.248255,46.7545721 129.318993,49.1325197 129.318993,51.3382721 L124.125523,51.3382721 C124.115653,50.2137295 123.859023,49.896118 123.6501,49.6869197 C123.110518,49.2149656 122.342273,49.1153164 121.2335,49.1153164 C119.891127,49.1153164 118.338185,49.175041 118.338185,50.783223 C118.338185,52.0101738 118.876122,52.5230262 120.287587,52.6132623 C122.227119,52.7356328 126.048604,52.856218 127.410718,53.6491918 C129.320638,54.7636721 129.815803,56.271718 129.815803,58.7321115 C129.815803,62.2876721 128.526072,63.3312295 126.731306,64.1134918 C124.660169,65.0158525 117.742672,65.0158525 115.493868,64.0437049 C112.976919,62.9611967 112.925922,60.8036459 112.925922,58.1730049" id="toshiba"></path>
        </g>
    </g>
</svg>