<?xml version="1.0" encoding="UTF-8"?>
<svg width="275px" height="110px" viewBox="0 0 275 110" version="1.1" xmlns="http://www.w3.org/2000/svg" xmlns:xlink="http://www.w3.org/1999/xlink">
    <title>logo-project-hitachi-capital</title>
    <g id="Symbols" stroke="none" stroke-width="1" fill="none" fill-rule="evenodd" fill-opacity="0.72">
        <g id="logo/projects/hitachi-capital" fill="#000000" fill-rule="nonzero">
            <path d="M38.4829145,45.02 C38.5803616,46.0919181 39.3599384,46.8065302 40.3777193,47.0447343 C43.3877521,47.7485189 45.7481375,50.1197318 46.4627496,53.1189371 C46.7009536,54.136718 47.4155657,54.9162948 48.4874839,55.0137419 C47.4155657,55.1003616 46.7009536,55.8799384 46.4627496,56.8977193 C45.7481375,59.9077521 43.3877521,62.2789649 40.3777193,62.9827496 C39.4198079,63.2069416 38.6729007,63.8531422 38.5071016,64.8220551 L38.488,64.965 L38.4695548,64.8221609 C38.3037557,63.8543411 37.5568485,63.2171322 36.5989371,62.9827496 C33.5997318,62.2789649 31.2176915,59.9077521 30.5247343,56.8977193 C30.2865302,55.8799384 29.5719181,55.1003616 28.5,55.0137419 C29.5719181,54.9271223 30.2757028,54.1475454 30.5247343,53.1189371 C31.2285189,50.1089043 33.5997318,47.7485189 36.5989371,47.0447343 C37.616718,46.7957028 38.3962948,46.0919181 38.4829145,45.02 Z M42.8247243,59.929407 L34.1519321,59.929407 C35.3212973,60.9471878 36.8263137,61.5643528 38.4829145,61.5643528 C40.4859938,61.5643528 41.6661866,60.9471878 42.8247243,59.929407 Z M38.4829145,51.7330227 C36.6747293,51.7330227 35.2130227,53.2055568 35.2130227,55.0137419 C35.2130227,56.8219271 36.6747293,58.2836337 38.4829145,58.2836337 C40.3019271,58.2836337 41.7636337,56.8219271 41.7636337,55.0137419 C41.7636337,53.2055568 40.3019271,51.7330227 38.4829145,51.7330227 Z M44.1673289,51.7330227 L42.1425946,51.7330227 C42.911344,52.6100467 43.3985795,53.7469296 43.3985795,55.0137419 C43.3985795,56.2697268 42.911344,57.4174372 42.1425946,58.2836337 L44.1673289,58.2836337 C44.7195292,57.3199901 45.0335254,56.2047621 45.0335254,55.0137419 C45.0335254,53.8118943 44.7087017,52.6966663 44.1673289,51.7330227 Z M34.8340618,51.7330227 L32.820155,51.7330227 C32.2679547,52.6966663 31.943131,53.8118943 31.943131,55.0137419 C31.943131,56.2047621 32.2571272,57.3199901 32.820155,58.2836337 L34.8340618,58.2836337 C34.054485,57.4174372 33.5780769,56.2697268 33.5780769,55.0137419 C33.5780769,53.757757 34.0436575,52.6100467 34.8340618,51.7330227 Z M38.4829145,53.3787961 C39.4032482,53.3787961 40.1286878,54.1042356 40.1286878,55.0137419 C40.1286878,55.9124208 39.3924208,56.6486878 38.4829145,56.6486878 C37.5842356,56.6486878 36.8479686,55.9124208 36.8479686,55.0137419 C36.8479686,54.1150631 37.5842356,53.3787961 38.4829145,53.3787961 Z M39.3166286,48.5064408 L39.3166286,50.0872494 L42.8355518,50.0872494 C41.8719082,49.2318804 40.6592331,48.6688527 39.3166286,48.5064408 Z M37.6708553,48.5064408 C36.3390782,48.6796801 35.1155756,49.2427079 34.1519321,50.0872494 L37.6708553,50.0872494 L37.6708553,48.5064408 Z M50.2090494,48.6147154 L52.9050859,48.6147154 L52.9050859,53.5628628 L57.8640608,53.5628628 L57.8640608,48.6147154 L60.5600973,48.6147154 L60.5600973,61.4993881 L57.8640608,61.4993881 L57.8640608,55.9449031 L52.9050859,55.9449031 L52.9050859,61.4993881 L50.2090494,61.4993881 L50.2090494,48.6147154 L50.2090494,48.6147154 Z M65.2375584,50.7152419 L62.8013807,50.7152419 L62.8013807,48.6147154 L65.2375584,48.6147154 L65.2375584,50.7152419 Z M62.8013807,52.166121 L65.2375584,52.166121 L65.2375584,61.4885606 L62.8013807,61.4885606 L62.8013807,52.166121 Z M70.3048078,52.166121 L72.091338,52.166121 L72.091338,53.876859 L70.3048078,53.876859 L70.3048078,58.5001828 C70.3048078,59.3663793 70.5105295,59.5829284 71.3334161,59.5829284 C71.6041025,59.5829284 71.8639615,59.5612735 72.091338,59.5071362 L72.091338,61.5102156 C71.6798947,61.5860077 71.1493494,61.5968352 70.6729413,61.5968352 C69.1679249,61.5968352 67.8794576,61.2503566 67.8794576,59.3772067 L67.8794576,53.876859 L66.3960962,53.876859 L66.3960962,52.166121 L67.8686302,52.166121 L67.8686302,49.3726373 L70.3048078,49.3726373 L70.3048078,52.166121 Z M73.3689778,55.0353968 C73.5097348,52.6533565 75.5452965,51.9170895 77.5375484,51.9170895 C79.3024238,51.9170895 81.4354326,52.3285328 81.4354326,54.5698162 L81.4354326,59.4205165 C81.4354326,60.2650581 81.5220522,61.1204271 81.7386014,61.4993881 L79.2699414,61.4993881 C79.1833217,61.2070468 79.118357,60.903878 79.0967021,60.6007092 C78.3279527,61.4452508 77.2127247,61.759247 76.1083242,61.759247 C74.4084136,61.759247 73.087464,60.8713956 73.087464,58.9657634 C73.1199464,54.7214006 79.0858746,56.9951664 78.9884275,54.9054674 C78.9884275,53.8227218 78.262988,53.638655 77.407619,53.638655 C76.4656303,53.638655 75.8809477,54.0392709 75.794328,55.0462243 L73.3689778,55.0462243 L73.3689778,55.0353968 Z M78.999255,56.9302016 C78.5878117,57.3091626 77.7324426,57.3308175 76.9745207,57.4715745 C76.2165988,57.6123314 75.5344691,57.9046727 75.5344691,58.8466614 C75.5344691,59.78865 76.2382537,60.0376815 77.028658,60.0376815 C78.9342903,60.0376815 78.999255,58.4677004 78.999255,57.8938452 L78.999255,56.9302016 L78.999255,56.9302016 Z M89.3286481,55.4468402 C89.1770637,54.3857495 88.5707261,53.8443767 87.5312904,53.8443767 C85.9721367,53.8443767 85.4524188,55.5009775 85.4524188,56.8760644 C85.4524188,58.2294964 85.9504818,59.8211324 87.4771531,59.8211324 C88.6248634,59.8211324 89.2636833,59.0848654 89.4152677,57.9263276 L91.7648257,57.9263276 C91.440002,60.3949876 89.8483659,61.7484196 87.498808,61.7484196 C84.8244263,61.7484196 83.0270686,59.7669951 83.0270686,56.962684 C83.0270686,54.0609258 84.672842,51.906262 87.5529453,51.906262 C89.6426443,51.906262 91.5807589,53.0647998 91.7215158,55.4468402 L89.3286481,55.4468402 Z M93.2698421,48.6147154 L95.7060197,48.6147154 L95.7060197,53.4654157 L95.7601569,53.4654157 C96.3773219,52.404325 97.4384126,51.9170895 98.3479189,51.9170895 C100.935681,51.9170895 101.585328,53.4545883 101.585328,55.7608364 L101.585328,61.4993881 L99.1491507,61.4993881 L99.1491507,56.226417 C99.1491507,54.6889182 98.7377074,53.9309963 97.589997,53.9309963 C96.2690474,53.9309963 95.7060197,54.7105732 95.7060197,56.605378 L95.7060197,61.4993881 L93.2698421,61.4993881 L93.2698421,48.6147154 L93.2698421,48.6147154 Z M106.057068,50.7152419 L103.62089,50.7152419 L103.62089,48.6147154 L106.057068,48.6147154 L106.057068,50.7152419 Z M103.62089,52.166121 L106.057068,52.166121 L106.057068,61.4885606 L103.62089,61.4885606 L103.62089,52.166121 Z M121.161369,52.9348704 C120.977302,51.6572306 119.807937,50.6827595 118.486987,50.6827595 C116.072464,50.6827595 115.162958,52.8482507 115.162958,55.1003616 C115.162958,57.2441979 116.072464,59.4096891 118.486987,59.4096891 C120.132761,59.4096891 121.063922,58.2403238 121.269643,56.5187583 L123.87906,56.5187583 C123.608374,59.7453402 121.507847,61.7917294 118.497815,61.7917294 C114.72986,61.7917294 112.477749,58.814179 112.477749,55.1003616 C112.477749,51.2782696 114.719032,48.3007192 118.497815,48.3007192 C121.172196,48.3007192 123.45679,49.95732 123.781613,52.9348704 L121.161369,52.9348704 Z M125.275802,55.0353968 C125.416559,52.6533565 127.452121,51.9170895 129.444373,51.9170895 C131.209248,51.9170895 133.342257,52.3285328 133.342257,54.5698162 L133.342257,59.4205165 C133.342257,60.2650581 133.428877,61.1204271 133.656253,61.4993881 L131.187593,61.4993881 C131.100973,61.2070468 131.036009,60.903878 131.014354,60.6007092 C130.245604,61.4452508 129.130376,61.759247 128.025976,61.759247 C126.326065,61.759247 125.005116,60.8713956 125.005116,58.9657634 C125.037598,54.7214006 131.003526,56.9951664 130.906079,54.9054674 C130.906079,53.8227218 130.18064,53.638655 129.325271,53.638655 C128.383282,53.638655 127.798599,54.0392709 127.71198,55.0462243 L125.275802,55.0462243 L125.275802,55.0353968 Z M130.906079,56.9302016 C130.494636,57.3091626 129.639267,57.3308175 128.881345,57.4715745 C128.123423,57.6123314 127.441293,57.9046727 127.441293,58.8466614 C127.441293,59.78865 128.145078,60.0376815 128.935482,60.0376815 C130.841115,60.0376815 130.906079,58.4677004 130.906079,57.8938452 L130.906079,56.9302016 L130.906079,56.9302016 Z M135.366991,52.166121 L137.684067,52.166121 L137.684067,53.3571412 L137.716549,53.3571412 C138.312059,52.3501877 139.264875,51.9170895 140.358448,51.9170895 C143.141105,51.9170895 144.386262,54.2774749 144.386262,56.9302016 C144.386262,59.4205165 143.097795,61.7484196 140.488378,61.7484196 C139.405632,61.7484196 138.431161,61.2611841 137.835651,60.3408503 L137.803169,60.3408503 L137.803169,64.7801073 L135.366991,64.7801073 L135.366991,52.166121 Z M141.950084,56.8544095 C141.950084,55.3602205 141.387057,53.8443767 139.827903,53.8443767 C138.236267,53.8443767 137.716549,55.3385656 137.716549,56.8544095 C137.716549,58.3702533 138.268749,59.810305 139.838731,59.810305 C141.441194,59.810305 141.950084,58.3702533 141.950084,56.8544095 Z M148.468213,50.7152419 L146.032035,50.7152419 L146.032035,48.6147154 L148.468213,48.6147154 L148.468213,50.7152419 Z M146.032035,52.166121 L148.468213,52.166121 L148.468213,61.4885606 L146.032035,61.4885606 L146.032035,52.166121 Z M153.535462,52.166121 L155.321993,52.166121 L155.321993,53.876859 L153.535462,53.876859 L153.535462,58.5001828 C153.535462,59.3663793 153.741184,59.5829284 154.564071,59.5829284 C154.834757,59.5829284 155.094616,59.5612735 155.321993,59.5071362 L155.321993,61.5102156 C154.910549,61.5860077 154.380004,61.5968352 153.903596,61.5968352 C152.39858,61.5968352 151.110112,61.2503566 151.110112,59.3772067 L151.110112,53.876859 L149.637578,53.876859 L149.637578,52.166121 L151.110112,52.166121 L151.110112,49.3726373 L153.54629,49.3726373 L153.54629,52.166121 L153.535462,52.166121 Z M156.599632,55.0353968 C156.740389,52.6533565 158.775951,51.9170895 160.768203,51.9170895 C162.533078,51.9170895 164.666087,52.3285328 164.666087,54.5698162 L164.666087,59.4205165 C164.666087,60.2650581 164.752707,61.1204271 164.969256,61.4993881 L162.500596,61.4993881 C162.413976,61.2070468 162.349012,60.903878 162.327357,60.6007092 C161.558607,61.4452508 160.443379,61.759247 159.338979,61.759247 C157.639068,61.759247 156.318119,60.8713956 156.318119,58.9657634 C156.350601,54.7214006 162.316529,56.9951664 162.219082,54.9054674 C162.219082,53.8227218 161.493643,53.638655 160.638274,53.638655 C159.696285,53.638655 159.111602,54.0392709 159.024983,55.0462243 L156.599632,55.0462243 L156.599632,55.0353968 Z M162.22991,56.9302016 C161.818466,57.3091626 160.963097,57.3308175 160.205175,57.4715745 C159.447253,57.6123314 158.765124,57.9046727 158.765124,58.8466614 C158.765124,59.78865 159.468908,60.0376815 160.259313,60.0376815 C162.164945,60.0376815 162.22991,58.4677004 162.22991,57.8938452 L162.22991,56.9302016 L162.22991,56.9302016 Z M166.712476,48.6147154 L169.148654,48.6147154 L169.148654,61.4993881 L166.712476,61.4993881 L166.712476,48.6147154 Z M180.10604,48.3007192 C178.817572,50.8451714 178.23289,53.6603099 178.23289,56.4754485 C178.23289,59.3447243 178.795917,62.1598629 180.084385,64.7801073 L178.05965,64.7801073 C176.641254,62.3114473 175.796712,59.4963087 175.796712,56.6595152 C175.796712,53.9526512 176.554634,50.6177948 178.05965,48.3115466 L180.10604,48.3115466 L180.10604,48.3007192 Z M191.583143,56.6162054 C191.583143,60.1026463 189.623373,61.7917294 186.353482,61.7917294 C183.04028,61.7917294 181.134648,60.1351286 181.134648,56.6162054 L181.134648,48.603888 L183.830684,48.603888 L183.830684,56.6162054 C183.830684,58.0237747 184.177163,59.4096891 186.353482,59.4096891 C188.269941,59.4096891 188.887106,58.5434926 188.887106,56.6162054 L188.887106,48.603888 L191.583143,48.603888 L191.583143,56.6162054 L191.583143,56.6162054 Z M206.741581,48.3115466 C208.170806,50.7802066 209.00452,53.6170001 209.00452,56.4429661 C209.00452,59.1173478 208.246598,62.5279964 206.741581,64.7801073 L204.695192,64.7801073 C205.983659,62.2356551 206.568342,59.4421715 206.568342,56.6270329 C206.568342,53.757757 206.005314,50.9209635 204.716847,48.3115466 L206.741581,48.3115466 Z M196.650392,48.6147154 L196.650392,53.9526512 L201.436128,48.6147154 L204.792639,48.6147154 L200.006904,53.7036197 L205.25822,61.4993881 L201.880054,61.4993881 L198.187891,55.7066991 L196.639565,57.3524724 L196.639565,61.4993881 L193.943528,61.4993881 L193.943528,48.6147154 L196.650392,48.6147154 Z M215.490166,48.6147154 L221.012168,48.6147154 C224.076339,48.6147154 225.245704,50.6502771 225.245704,52.7508036 C225.245704,54.8405026 224.076339,56.8868918 221.012168,56.8868918 L218.186202,56.8868918 L218.186202,61.5102156 L215.490166,61.5102156 L215.490166,48.6147154 L215.490166,48.6147154 Z M218.186202,54.6672633 L220.275901,54.6672633 C221.510231,54.6672633 222.647114,54.374922 222.647114,52.7399762 C222.647114,51.0942028 221.521059,50.812689 220.275901,50.812689 L218.186202,50.812689 L218.186202,54.6672633 Z M226.24183,48.6147154 L228.937866,48.6147154 L228.937866,59.1173478 L234.903795,59.1173478 L234.903795,61.4993881 L226.24183,61.4993881 L226.24183,48.6147154 Z M243.782309,52.9348704 C243.598242,51.6572306 242.428877,50.6827595 241.107927,50.6827595 C238.693404,50.6827595 237.783898,52.8482507 237.783898,55.1003616 C237.783898,57.2441979 238.693404,59.4096891 241.107927,59.4096891 C242.7537,59.4096891 243.684861,58.2403238 243.890583,56.5187583 L246.5,56.5187583 C246.229314,59.7453402 244.128787,61.7917294 241.118754,61.7917294 C237.3508,61.7917294 235.098689,58.814179 235.098689,55.1003616 C235.098689,51.2782696 237.3508,48.3007192 241.118754,48.3007192 C243.793136,48.3007192 246.077729,49.95732 246.402553,52.9348704 L243.782309,52.9348704 Z" id="hitachi-capital"></path>
        </g>
    </g>
</svg>