<?xml version="1.0" encoding="UTF-8"?>
<svg width="275px" height="110px" viewBox="0 0 275 110" version="1.1" xmlns="http://www.w3.org/2000/svg" xmlns:xlink="http://www.w3.org/1999/xlink">
    <title>logo-project-cinch</title>
    <g id="Symbols" stroke="none" stroke-width="1" fill="none" fill-rule="evenodd" fill-opacity="0.72">
        <g id="logo/projects/cinch" fill="#000000" fill-rule="nonzero">
            <path d="M104.266107,46.805442 C107.444484,46.805442 110.443212,48.2550508 112.384507,50.7304384 L108.89864,53.5918511 C107.822337,52.1316511 106.099754,51.2672815 104.266107,51.2673057 C101.103331,51.2704132 98.5400056,53.7912207 98.5362133,56.902157 C98.5400056,60.0130933 101.103331,62.5339008 104.266107,62.5370082 C106.099754,62.5370324 107.822337,61.6726628 108.89864,60.2124629 L112.384507,63.0750034 C110.443325,65.5505277 107.444525,67.0003555 104.266107,66.9999999 C98.6050133,66.9999999 94,62.4715916 94,56.9032849 C94,51.336106 98.6050133,46.805442 104.266107,46.805442 Z M151.362,46.8054419 C154.540418,46.8050863 157.539219,48.2549141 159.4804,50.7304384 L155.994533,53.5918511 C154.91823,52.1316511 153.195648,51.2672815 151.362,51.2673057 C148.199411,51.2704143 145.636414,53.7914031 145.633253,56.902157 C145.637046,60.0130933 148.200371,62.5339008 151.363147,62.5370082 C153.196749,62.5368481 154.919251,61.6725188 155.99568,60.2124629 L155.995,60.213 L159.4804,63.0738755 C157.606046,65.463905 154.745929,66.8976793 151.690121,66.9937184 L151.362,66.998872 C145.7032,66.998872 141.098187,62.468208 141.098187,56.9010291 C141.098187,51.3349781 145.702053,46.8054419 151.362,46.8054419 Z M118.615493,48.3506273 L118.615493,66.6616381 L114.080427,66.6616381 L114.080427,48.3506273 L118.615493,48.3506273 Z M130.035147,47.1471873 C132.529147,47.1471873 135.931307,47.778796 137.967787,50.7823206 C139.237147,52.6557169 139.50432,54.7919075 139.50432,56.2525024 L139.50432,66.6616381 L134.968107,66.6616381 L134.968107,56.2513745 C134.968107,55.5599887 134.8672,54.2516565 134.19296,53.2568729 C133.441893,52.1470463 132.081947,51.6079233 130.035147,51.6079233 C127.929867,51.6079233 126.517173,52.318483 125.834907,53.2568729 C125.17672,54.1602988 125.102187,55.2983222 125.102187,56.2513745 L125.102187,66.6616381 L120.565973,66.6616381 L120.565973,56.2513745 C120.565973,54.6858874 120.7288,52.3771323 122.143787,50.4304243 C123.726187,48.2513746 126.381867,47.1471873 130.035147,47.1471873 Z M165.597867,43 L165.597867,48.061892 C166.957813,47.4528408 168.604427,47.1460595 170.530827,47.1460595 C173.024827,47.1460595 176.426987,47.7754124 178.463467,50.7811927 C179.732827,52.6557169 180,54.7919075 180,56.2513745 L180,66.6616381 L175.46264,66.6616381 L175.46264,56.2513745 C175.46264,55.5599887 175.36288,54.2516565 174.68864,53.2568729 C173.936427,52.1470463 172.577627,51.6079233 170.530827,51.6079233 C168.425547,51.6079233 167.012853,52.3173551 166.330587,53.2568729 C165.673547,54.1602988 165.597867,55.2994501 165.597867,56.2513745 L165.597867,66.6616381 L161.061653,66.6616381 L161.061653,43 L165.597867,43 Z M116.5,37 C118.982447,37 121,39.018175 121,41.4988719 C121,43.9806969 118.981319,46 116.5,46 C114.01575,45.9963845 112.002488,43.9836273 112,41.5 C112,39.0193031 114.017553,37 116.5,37 Z M116.5,38.5793432 C114.8877,38.5805874 113.580984,39.8869764 113.579739,41.4988719 C113.580984,43.1107674 114.8877,44.4171564 116.5,44.4184006 C118.1123,44.4171564 119.419016,43.1107674 119.420261,41.4988719 C119.419016,39.8869764 118.1123,38.5805874 116.5,38.5793432 Z" id="cinch"></path>
        </g>
    </g>
</svg>