<?xml version="1.0" encoding="UTF-8"?>
<svg width="275px" height="110px" viewBox="0 0 275 110" version="1.1" xmlns="http://www.w3.org/2000/svg" xmlns:xlink="http://www.w3.org/1999/xlink">
    <title>logo-project-nike</title>
    <g id="Symbols" stroke="none" stroke-width="1" fill="none" fill-rule="evenodd" fill-opacity="0.72">
        <g id="logo/projects/nike" fill="#000000" fill-rule="nonzero">
            <path d="M106.045214,69.2738101 C103.601952,69.1765452 101.602996,68.5065911 100.039978,67.2622707 C99.7416824,67.0245586 99.0308774,66.3118414 98.7924084,66.0112424 C98.1585828,65.2125799 97.7276651,64.435299 97.4402472,63.5729112 C96.5558199,60.9182493 97.0110029,57.4347393 98.7422044,53.6116404 C100.224478,50.3385916 102.511688,47.0923745 106.50207,42.5963868 C107.089875,41.9348175 108.840322,40 108.851617,40 C108.855801,40 108.760414,40.1656019 108.640342,40.367259 C107.602793,42.1088044 106.715019,44.1601721 106.231387,45.9360956 C105.45448,48.7857066 105.548194,51.2311651 106.505835,53.127412 C107.166436,54.4337807 108.298955,55.565324 109.572463,56.1908382 C111.801939,57.2854879 115.066037,57.3760449 119.052235,56.4558012 C119.326683,56.3920759 132.926111,52.7744074 149.273372,48.4163514 C165.620633,44.0578762 178.997908,40.4947096 179,40.4976443 C179.004602,40.5014175 141.02067,56.7891013 121.302629,65.2389924 C118.17994,66.5768045 117.34488,66.9147163 115.876831,67.4312266 C112.124082,68.7518496 108.762505,69.3819755 106.045214,69.2738101 Z" id="Nike"></path>
        </g>
    </g>
</svg>