<?xml version="1.0" encoding="UTF-8"?>
<svg width="275px" height="110px" viewBox="0 0 275 110" version="1.1" xmlns="http://www.w3.org/2000/svg" xmlns:xlink="http://www.w3.org/1999/xlink">
    <title>logo-project-astrazeneca</title>
    <g id="Symbols" stroke="none" stroke-width="1" fill="none" fill-rule="evenodd" fill-opacity="0.72">
        <g id="logo/projects/astrazeneca" fill="#000000" fill-rule="nonzero">
            <path d="M211.946155,25 L212.184235,25.008113 C212.408799,25.040565 212.601283,25.040565 212.793767,25.1054689 C212.92209,25.1379209 213.050412,25.1703729 213.178735,25.2352769 C213.307058,25.3001808 213.467461,25.3975368 213.595784,25.4948927 C213.852429,25.6571526 214.076994,25.8843165 214.269478,26.1439323 C214.429881,26.3710962 214.558203,26.59826 214.686526,26.8254239 C214.846929,27.1174917 214.975252,27.4095596 215.071494,27.7340794 C215.135655,27.9287912 215.199817,28.0910511 215.231897,28.285763 C215.424381,29.0970625 215.616865,29.908362 215.745188,30.7196616 C215.937672,31.7905769 216.033914,32.8290403 216.130156,33.8999556 C216.226398,35.4251987 216.32264,36.9504418 216.35472,38.4756849 C216.386801,39.5141483 216.35472,40.5201597 216.35472,41.558623 L221.68011,43.4408379 C222.482126,43.7329057 223.219982,44.1223295 223.989918,44.4793013 C224.631531,44.7713691 225.208983,45.1607929 225.818515,45.5177647 C226.107241,45.7124765 226.331806,45.9071884 226.588451,46.1019003 C226.716774,46.1992563 226.813016,46.2966122 226.909258,46.3939681 C227.0055,46.4913241 227.101742,46.58868 227.165903,46.686036 C227.294225,46.8807478 227.422548,47.0430077 227.51879,47.2377196 C227.615032,47.3999795 227.711274,47.5622394 227.775435,47.7569513 C227.839597,47.9192112 227.903758,48.0814711 227.935839,48.276183 C227.935839,48.341087 227.967919,48.4384429 227.967919,48.5357988 C227.967919,48.6331548 228,48.7305107 228,48.7954147 L228,49.0874825 C228,49.1848385 228,49.2821944 227.967919,49.3795503 C227.903758,49.5742622 227.871677,49.8014261 227.807516,49.996138 C227.615032,50.4504657 227.390467,50.9372454 227.165903,51.3915731 C227.101742,51.5213811 227.0055,51.651189 226.909258,51.7809969 C226.813016,51.9432568 226.716774,52.0730647 226.588451,52.2028726 C226.331806,52.4949405 226.107241,52.7870083 225.818515,53.0466241 C225.241063,53.5983078 224.663611,54.1175395 224.054079,54.6367712 C223.348304,55.2209068 222.610449,55.8050425 221.840513,56.3242742 C220.076077,57.5574494 218.27956,58.7581727 216.483043,59.991348 L219.434464,61.7437549 C220.140238,62.1656307 220.813932,62.5875064 221.519707,63.0093821 C221.615949,63.0742861 221.712191,63.1391901 221.808433,63.204094 C222.032997,63.3339019 222.225481,63.5286138 222.417965,63.7233257 C222.514207,63.8206817 222.610449,63.9504896 222.67461,64.0802975 C222.738772,64.2101054 222.802933,64.3399133 222.835014,64.5021732 C222.867094,64.6319812 222.867094,64.7942411 222.835014,64.956501 C222.802933,65.1187609 222.706691,65.2810208 222.610449,65.4432807 C222.546288,65.5406366 222.450046,65.6379926 222.385885,65.7028965 C222.321723,65.8002525 222.193401,65.8976084 222.097159,65.9625124 C221.968836,66.0598683 221.840513,66.1572243 221.712191,66.2221282 C221.583868,66.2870322 221.455545,66.3843881 221.295142,66.4492921 C220.621448,66.7413599 219.947754,67.0009757 219.27406,67.2930436 C218.407883,67.6500154 217.509624,67.8771792 216.611366,68.1043431 C215.36022,68.4288629 214.076994,68.7209307 212.793767,69.0129985 C211.703025,69.2401624 210.612282,69.4997782 209.52154,69.6620381 C208.591201,69.824298 207.660862,69.921654 206.698442,69.9865579 C206.409716,70.0190099 206.12099,69.9865579 205.864345,69.954106 C205.286893,69.85675 204.741522,69.7593941 204.19615,69.6295862 C204.035747,69.5971342 203.875344,69.5322302 203.747021,69.4673263 C203.618698,69.4024223 203.458295,69.3375183 203.329973,69.2726144 L202.945005,69.0129985 C202.816682,68.9156426 202.688359,68.8182867 202.592117,68.7209307 C202.495875,68.6235748 202.399633,68.4937668 202.303391,68.3639589 C202.23923,68.299055 202.207149,68.234151 202.175069,68.169247 C202.014665,67.8771792 201.950504,67.5202074 201.918423,67.1956876 L201.918423,66.8062639 C201.918423,66.7089079 201.918423,66.5791 201.950504,66.4817441 C201.982585,66.3194842 202.014665,66.1247723 202.078827,65.9625124 C202.142988,65.7028965 202.23923,65.4757327 202.335472,65.2485688 C202.495875,64.956501 202.624198,64.6644331 202.816682,64.3723653 C203.041247,64.0153935 203.297892,63.6584218 203.554537,63.3339019 C203.875344,62.9120262 204.228231,62.5226024 204.613199,62.1331787 C205.062328,61.6788509 205.543538,61.2245232 206.056829,60.8026475 C207.372136,59.7317321 208.783685,58.7257207 210.131072,57.6872573 L206.217232,55.4480707 C204.484876,54.4745113 202.72044,53.5009519 200.956004,52.5598444 C199.191567,51.618737 197.427131,50.7100815 195.662695,49.7689741 L195.43813,49.6716182 L195.406049,49.6716182 L195.408,49.673 L195.341888,49.6391662 L195.149404,49.5418102 C194.860678,49.3795503 194.571952,49.2172904 194.283226,49.0225786 C194.122823,48.8927706 193.9945,48.7954147 193.834097,48.6656068 C193.673694,48.5357988 193.545371,48.4059909 193.417049,48.276183 C193.320807,48.1788271 193.224565,48.0165672 193.128323,47.8867592 L193.032081,47.6920474 C193.032081,47.6271434 193,47.5622394 193,47.4973355 C193,47.2052676 193.032081,46.9131998 193.096242,46.653584 C193.128323,46.4913241 193.160403,46.3615162 193.224565,46.1992563 C193.288726,46.0369964 193.352887,45.9071884 193.417049,45.7449285 C193.673694,45.1607929 193.9945,44.6091092 194.283226,44.0574255 C194.47571,43.7329057 194.668194,43.4083859 194.860678,43.1163181 C195.694775,41.9155948 196.496792,40.6824196 197.36297,39.5466003 C199.351971,36.9504418 201.405133,34.4191873 203.458295,31.8879329 C203.971586,31.2388932 204.516957,30.6223056 205.094409,30.03817 C206.185151,28.9348026 207.275894,27.8638873 208.398717,26.7929719 C208.655362,26.5333561 208.976169,26.3061922 209.264895,26.0790284 C209.617782,25.8518645 209.970669,25.6247006 210.323556,25.4299887 C210.48396,25.3326328 210.644363,25.2677288 210.804766,25.2028249 C211.253896,25.040565 211.703025,24.975661 212.184235,25.008113 Z M70.7065217,54.0065898 C72.923913,54.0065898 75.0434783,54.7891269 76.0869565,56.7298188 L73.7717391,57.6375618 C73.576087,57.1054366 72.4021739,55.8220758 70.4130435,55.8220758 C68.4565217,55.8220758 67.4782609,56.9176277 67.4782609,57.8879736 C67.4782609,59.2339374 69.3369565,59.7973641 70.9021739,60.1103789 C74.1630435,60.7364086 77.0326087,61.5502471 77.0326087,64.523888 C77.0326087,66.8401977 74.9130435,69 70.8369565,69 C67.8369565,69 65.7173913,68.029654 64.673913,66.0263591 L67.3152174,65.5881384 C67.9673913,66.6836903 69.173913,67.1532125 70.9347826,67.1532125 C73.1521739,67.1532125 74.423913,66.339374 74.423913,64.8056013 C74.4565217,63.2092257 72.3369565,62.708402 70.1521739,62.2388797 L69.7504199,62.1542576 C67.3413224,61.6408567 65,60.9884679 65,58.2009885 C65,55.6342669 67.2826087,54.0065898 70.7065217,54.0065898 Z M174.597826,53.9752883 C176.456522,53.9752883 179.032609,54.5074135 180.467391,56.7924217 L178.152174,57.7314662 C177.728261,56.7924217 176.75,55.7281713 174.695652,55.7281713 C170.619565,55.7281713 170.358696,60.2042834 170.358696,61.4563427 C170.358696,66.1515651 173.163043,67.1532125 174.826087,67.1532125 C176.75,67.1532125 177.728261,66.276771 178.25,65.306425 L180.434783,66.1828666 C179.521739,67.5914333 177.826087,69 174.793478,69 C169.543478,69 167.586957,65.1186161 167.586957,61.6441516 C167.586957,57.6375618 169.869565,53.9752883 174.597826,53.9752883 Z M131.684783,53.9752883 C134.391304,53.9752883 137,55.4151565 137.880435,58.9835255 C138.173913,60.1729819 138.173913,61.2685338 138.173913,61.8632619 L127.543478,61.8632619 C127.478261,64.2421746 128.521739,67.247117 132.01087,67.184514 C133.445652,67.1532125 134.456522,66.5271829 135.076087,65.5568369 L137.48913,66.0263591 C136.641304,67.4036244 135.01087,69 131.782609,69 C127.413043,69 124.902174,66.1515651 124.902174,61.3624382 C124.902174,56.0098847 128.586957,53.9752883 131.684783,53.9752883 Z M159.956522,53.9752883 C162.663043,53.9752883 165.271739,55.4151565 166.152174,58.9835255 C166.445652,60.1729819 166.445652,61.2685338 166.445652,61.8632619 L155.815217,61.8632619 C155.75,64.2421746 156.793478,67.247117 160.282609,67.184514 C161.717391,67.1532125 162.728261,66.5271829 163.347826,65.5568369 L165.76087,66.0263591 C164.913043,67.4036244 163.282609,69 160.054348,69 C155.684783,69 153.173913,66.1515651 153.173913,61.3624382 C153.173913,56.0098847 156.858696,53.9752883 159.956522,53.9752883 Z M101.521739,53.9126853 C102.891304,53.9126853 104.684783,54.2570016 105.826087,55.1021417 C107.322826,56.1726524 107.419674,58.2066227 107.424076,58.6027117 L107.424064,58.6627132 L107.521739,65.9637562 C107.554348,66.0263591 107.652174,68.1235585 107.945652,68.7182867 L105.369565,68.7182867 C105.369565,68.7182867 105.141304,67.7166392 105.076087,66.6210873 C104.326087,67.3723229 102.923913,68.9060956 100.119565,68.9060956 C97.25,68.9060956 95.0978261,67.2784185 95.0978261,64.8682043 C95.0978261,64.1169687 95.326087,63.3657331 95.75,62.7397035 C96.5978261,61.5502471 98.1630435,60.5799012 102.565217,60.2355848 L104.913043,60.0477759 L104.913043,59.6721582 C104.913043,58.2009885 104.913043,55.7281713 101.619565,55.7281713 C99.5326087,55.7281713 98.8478261,56.6985173 98.5869565,57.5749588 L96.3043478,56.6672158 C96.3369565,56.6046129 96.3695652,56.5107084 96.4347826,56.4481054 C97.3152174,54.8830313 99.0434783,53.9126853 101.521739,53.9126853 Z M187.576087,53.9126853 C188.945652,53.9126853 190.73913,54.2570016 191.880435,55.1021417 C193.377174,56.1726524 193.474022,58.2066227 193.478424,58.6027117 L193.478261,58.6705107 L193.576087,65.9637562 C193.608696,66.0263591 193.706522,68.1235585 194,68.7182867 L191.423913,68.7182867 L191.415072,68.6781739 C191.372461,68.4813052 191.18798,67.5877508 191.130435,66.6210873 C190.380435,67.3723229 188.978261,68.9060956 186.173913,68.9060956 C183.304348,68.9060956 181.152174,67.2784185 181.152174,64.8682043 C181.152174,64.1169687 181.380435,63.3657331 181.804348,62.7397035 C182.652174,61.5502471 184.217391,60.5799012 188.619565,60.2355848 L190.967391,60.0477759 L190.967009,59.450118 C190.959554,57.9656222 190.806734,55.7281713 187.673913,55.7281713 C185.586957,55.7281713 184.902174,56.6985173 184.641304,57.5749588 L182.358696,56.6672158 C182.391304,56.5733114 182.423913,56.5107084 182.48913,56.4481054 C183.369565,54.8830313 185.097826,53.9126853 187.576087,53.9126853 Z M82.5434783,50.0313015 L82.5434783,54.4448105 L85.2173913,54.4448105 L85.2173913,56.4481054 L82.5108696,56.4481054 L82.5108696,64.523888 C82.5108696,66.214168 82.5108696,66.9341021 83.5869565,66.9341021 C84.0434783,66.9341021 84.7282609,66.7462932 85.2173913,66.5897858 L85.2173913,68.5617792 C84.7934783,68.6243822 83.75,68.8121911 82.8043478,68.8121911 C79.9347826,68.8121911 79.9347826,67.4662273 79.9673913,65.6194399 L79.9673913,56.4481054 L77.6195652,56.4481054 L77.6195652,54.4448105 L79.9673913,54.4448105 L79.9673913,51.0642504 L82.5434783,50.0313015 Z M123.76087,50 L123.76087,52.3476112 L112.73913,66.4645799 L124.054348,66.4645799 L124.054348,68.7182867 L109.73913,68.7182867 L109.73913,66.276771 L120.826087,52.3163097 L109.73913,52.3163097 L109.73913,50 L123.76087,50 Z M146.717391,54.1317957 C148.608696,54.1317957 150.858696,55.0395387 151.576087,57.3871499 C151.81087,58.1477759 151.834348,58.9337562 151.836696,59.9504596 L151.836957,68.7182867 L149.358696,68.7182867 L149.35843,60.2066725 C149.356439,59.136892 149.339514,58.7680977 149.195652,58.3261944 C148.771739,56.9802306 147.369565,56.3855025 146.032609,56.3855025 C144.923913,56.3855025 143.978261,56.7298188 143.195652,57.4497529 C142.086957,58.5140033 142.086957,59.5782537 142.086957,60.6425041 L142.086957,68.7182867 L139.608696,68.7182867 L139.608696,54.601318 L142.086957,54.601318 L142.086957,56.6672158 C143.456522,54.3509061 145.836957,54.1317957 146.717391,54.1317957 Z M57.1413043,50 L64.2173913,68.7182867 L61.4782609,68.7182867 L59.3913043,62.9901153 L51.9565217,62.9901153 L49.7717391,68.7182867 L47,68.7182867 L54.4347826,50 L57.1413043,50 Z M95,54.2257002 L95,56.6985173 C92.5543478,56.7298188 91.3478261,57.199341 90.5652174,58.4514003 C90,59.3466227 89.9491304,60.5474867 89.9456135,61.6464702 L89.9456522,68.6869852 L87.4673913,68.6869852 L87.4673913,54.476112 L89.9456522,54.476112 L89.9456522,57.0115321 C91.3478261,54.3196046 94.0217391,54.2570016 95,54.2257002 Z M104.945652,61.6128501 C103.967391,61.7693575 102.663043,61.9571664 101.065217,62.2701812 C98.326087,62.8336079 97.8369565,63.8352554 97.8369565,64.8369028 C97.8369565,65.9637562 98.7826087,66.9341021 100.608696,66.9341021 C102.369565,66.9341021 103.836957,66.276771 104.554348,64.8056013 C104.911626,64.091111 104.942693,63.7419426 104.945395,62.1141472 L104.945652,61.6128501 Z M191,61.6128501 C190.021739,61.7693575 188.717391,61.9571664 187.119565,62.2701812 C184.380435,62.8336079 183.891304,63.8352554 183.891304,64.8369028 C183.891304,65.9637562 184.836957,66.9341021 186.663043,66.9341021 C188.423913,66.9341021 189.891304,66.276771 190.608696,64.8056013 C190.94896,64.1251343 190.993343,63.7760251 190.999132,62.3381687 L190.999968,61.8727293 C191,61.789239 191,61.7026717 191,61.6128501 Z M215.231897,60.8350995 L211.863428,63.1391901 C211.061412,63.6908737 210.323556,64.3074614 209.553621,64.891597 L209.168653,65.2161168 L209.072411,65.3134728 L209.264895,65.3134728 L215.231897,64.8266931 C216.771769,64.6968851 218.27956,64.5995292 219.819432,64.4697213 L219.915674,64.4697213 C219.947754,64.4372693 219.947754,64.4372693 219.979835,64.4372693 L220.003598,64.4132308 L220.011916,64.4048173 C220.043996,64.4048173 220.043996,64.3723653 220.043996,64.3723653 L220.043996,64.2750094 C219.979835,64.1776534 219.915674,64.0802975 219.819432,63.9829416 C219.72319,63.8531336 219.626948,63.7557777 219.498625,63.6584218 C219.24198,63.4312579 218.985335,63.204094 218.696609,63.0093821 C218.311641,62.7173143 217.894592,62.4576985 217.509624,62.1980826 C217.220898,61.9709188 216.900092,61.7762069 216.579285,61.581495 L215.231897,60.8350995 Z M55.7391304,53.1301483 L52.7717391,60.892916 L58.576087,60.892916 L55.7391304,53.1301483 Z M131.521739,55.7907743 C129.369565,55.7907743 127.869565,57.2932455 127.608696,60.1416804 L135.467391,60.1416804 C135.23913,56.416804 133.021739,55.7907743 131.521739,55.7907743 Z M159.76087,55.7907743 C157.641304,55.7907743 156.141304,57.2932455 155.847826,60.1416804 L163.706522,60.1416804 C163.478261,56.416804 161.26087,55.7907743 159.76087,55.7907743 Z M201.854262,40.8446795 L199.384051,43.4083859 C198.485793,44.3819453 197.555454,45.3230528 196.625115,46.2641602 C196.40055,46.4588721 196.240147,46.7184879 196.079743,46.9781038 C196.015582,47.0754597 195.983501,47.2052676 195.951421,47.3350756 L195.951421,47.4973355 C195.951421,47.5622394 195.951421,47.5946914 195.983501,47.6595954 C196.015582,47.7569513 196.079743,47.8543073 196.143905,47.9192112 C196.208066,47.9516632 196.272227,48.0165672 196.336389,48.0814711 C196.368469,48.1139231 196.40055,48.1139231 196.432631,48.1463751 C196.528873,48.211279 196.593034,48.276183 196.689276,48.341087 C196.978002,48.5682508 197.266728,48.7629627 197.555454,48.9576746 C199.159487,49.963686 200.76352,50.9047934 202.367553,51.8783528 L209.457379,55.9673024 L211.125573,56.9408618 L215.039413,54.4096073 C215.713107,53.9552796 216.386801,53.5334038 217.060495,53.0790761 C218.022915,52.3975845 218.953254,51.7160929 219.915674,51.0346013 C220.2044,50.8398895 220.428964,50.6127256 220.68561,50.3855617 C220.781852,50.2557538 220.910174,50.1583979 221.006416,50.02859 C221.070577,49.931234 221.134739,49.8338781 221.166819,49.7040701 C221.1989,49.6716182 221.1989,49.6391662 221.166819,49.5418102 L221.166819,49.4444543 C221.134739,49.3795503 221.134739,49.3146464 221.102658,49.2497424 C221.038497,49.1199345 220.974335,48.9901266 220.878093,48.8927706 C220.781852,48.7954147 220.68561,48.7305107 220.589368,48.6331548 C220.525206,48.5682508 220.428964,48.5033469 220.364803,48.4708949 C219.691109,48.0814711 219.017415,47.6271434 218.311641,47.2701716 C217.573786,46.8807478 216.83593,46.58868 216.098075,46.2317082 L215.777269,49.3470984 C215.713107,49.86633 215.584785,50.4180137 215.456462,50.9372454 C215.392301,51.3266692 215.263978,51.7160929 215.135655,52.1055167 C215.039413,52.4624885 214.87901,52.7870083 214.686526,53.1115281 C214.622365,53.241336 214.558203,53.3711439 214.461962,53.4684999 C214.3978,53.5658558 214.301558,53.6632118 214.237397,53.7281157 C214.141155,53.8254717 214.044913,53.9228276 213.948671,53.9877316 C213.88451,54.0526355 213.820348,54.0850875 213.756187,54.1175395 C213.692026,54.1499915 213.627864,54.1824435 213.563703,54.2148954 C213.499542,54.2473474 213.4033,54.2473474 213.339138,54.2797994 C213.082493,54.3447034 212.793767,54.3771553 212.537122,54.3447034 C212.312557,54.3447034 212.087993,54.2797994 211.863428,54.2148954 C211.638863,54.1499915 211.414299,54.0526355 211.189734,53.9228276 C210.96517,53.7605677 210.740605,53.6307598 210.51604,53.4684999 C210.098992,53.1115281 209.681943,52.7545563 209.296975,52.3651325 C208.879927,51.9432568 208.462878,51.4564771 208.07791,50.9696974 C207.628781,50.4180137 207.211732,49.8338781 206.794684,49.2497424 C205.928506,48.0165672 205.062328,46.7509399 204.260312,45.4528607 C203.586618,44.3494934 202.945005,43.1487701 202.303391,42.0129508 L202.271311,41.9804988 L201.982585,41.2665552 L201.854262,40.8446795 Z M203.843263,40.9095834 L203.779102,40.9095834 L203.779102,41.0718433 L203.811182,41.2990072 L203.875344,41.5261711 L204.131989,42.2725666 L205.286893,44.6091092 C205.543538,45.1283409 205.832264,45.6151206 206.153071,46.1019003 C206.666361,46.9131998 207.211732,47.6920474 207.725023,48.5033469 C208.109991,49.0874825 208.55912,49.6067142 209.008249,50.1583979 L209.778185,51.0346013 C209.906508,51.1644093 210.03483,51.2617652 210.163153,51.3915731 C210.291476,51.4889291 210.419798,51.586285 210.548121,51.683641 C210.644363,51.7485449 210.772686,51.8459009 210.901008,51.9108048 C211.029331,51.9757088 211.125573,52.0081608 211.253896,52.0730647 C211.285976,52.1055167 211.350137,52.1379687 211.414299,52.1379687 C211.47846,52.1379687 211.510541,52.1704207 211.574702,52.1704207 C211.670944,52.2028726 211.767186,52.2028726 211.863428,52.1704207 C211.95967,52.1704207 212.023831,52.1379687 212.087993,52.1055167 C212.120073,52.0730647 212.152154,52.0730647 212.184235,52.0406127 C212.194928,52.0297954 212.202057,52.0225839 212.207998,52.0165742 L212.248396,51.9757088 L212.344638,51.8134489 C212.376719,51.7485449 212.376719,51.683641 212.408799,51.618737 L212.44088,51.4240251 C212.472961,51.3591212 212.472961,51.2942172 212.472961,51.2293132 L212.472961,50.8723414 C212.44088,49.931234 212.44088,48.9901266 212.376719,48.0490191 C212.312557,46.8482959 212.216315,45.6475726 212.120073,44.4468493 L211.991751,44.3819453 L210.48396,43.7329057 C209.746104,43.4083859 208.976169,43.0838661 208.206233,42.7593463 C207.051329,42.2725666 205.896425,41.7533349 204.741522,41.2665552 L204.292392,41.0718433 L203.971586,40.9420354 L203.843263,40.9095834 Z M210.451879,32.3098086 L210.291476,32.3098086 C210.227314,32.3422606 210.195234,32.3422606 210.131072,32.3747126 C210.098992,32.3747126 210.03483,32.4071645 210.00275,32.4396165 C209.938588,32.4720685 209.906508,32.5369725 209.842346,32.5694244 C209.746104,32.6018764 209.681943,32.6667804 209.617782,32.7316844 C209.425298,32.8939443 209.232814,33.0562042 209.04033,33.250916 C208.013749,34.2893794 207.019248,35.3278428 206.024748,36.3663062 C205.254812,37.1776057 204.516957,37.9889052 203.747021,38.8002047 L204.003666,38.8002047 L204.805683,38.8651087 L208.174152,39.4167923 L211.799267,40.2605438 L211.510541,36.9828938 C211.47846,36.3663062 211.414299,35.7497185 211.350137,35.1331309 C211.285976,34.6463512 211.221815,34.1920235 211.157654,33.7052438 L211.029331,33.1211081 C210.99725,32.9913002 210.96517,32.8614923 210.901008,32.7316844 C210.901008,32.6992324 210.868928,32.6343284 210.836847,32.6018764 C210.836847,32.5694244 210.804766,32.5369725 210.772686,32.5045205 C210.740605,32.4720685 210.676444,32.4071645 210.612282,32.3747126 C210.580202,32.3422606 210.51604,32.3098086 210.451879,32.3098086 Z" id="astrazeneca"></path>
        </g>
    </g>
</svg>