<?xml version="1.0" encoding="UTF-8"?>
<svg width="275px" height="110px" viewBox="0 0 275 110" version="1.1" xmlns="http://www.w3.org/2000/svg" xmlns:xlink="http://www.w3.org/1999/xlink">
    <title>logo-project-octopus-energy</title>
    <g id="Symbols" stroke="none" stroke-width="1" fill="none" fill-rule="evenodd" fill-opacity="0.72">
        <g id="logo/projects/octopus-energy" fill="#000000" fill-rule="nonzero">
            <path d="M38.4784768,46.7913043 C43.7668586,46.7913043 47.9565217,50.6310786 47.9565217,55.6722287 C47.9565217,60.7133339 44.200214,64.8 38.3811553,64.8 C33.092819,64.8 29,60.8369818 29,55.7958317 C29,50.4936048 33.1901177,46.7913043 38.4784768,46.7913043 Z M67.0415463,43 L67.0415463,47.0110056 L71.6521739,47.0110056 L71.6521739,50.4104844 L67.0415463,50.4104844 L67.0413014,59.077577 C67.040999,59.0819992 67.0404669,59.0907438 67.0399952,59.103411 L67.0392595,59.1855417 C67.0477764,59.7386282 67.3300414,62.1268504 71.6521739,61.1626707 L71.6521739,64.5913652 C62.8626237,66.1032128 63.2951948,58.9027815 63.2951948,58.9027815 L63.2802562,50.4043988 L57.2859639,50.4057686 C54.2477907,50.3744645 51.8749282,52.8409292 51.8749282,55.844818 C51.8615051,58.4347474 53.8273437,61.3736701 57.2859639,61.2838674 C58.1578177,61.269675 59.0277229,61.1896632 59.8883186,61.0444608 L59.8887516,64.4856859 C59.0015262,64.650313 58.1028262,64.739195 57.2017447,64.7514562 C49.790663,64.7481102 47.8748797,58.6814747 47.9679756,55.8456489 C47.8045815,53.9687068 49.3354891,47.5121852 56.0449742,47.0162828 L63.2951948,47.0110056 L63.2951948,43 L67.0415463,43 Z M38.4782495,50.1890973 C35.1732296,50.1890973 33.1014102,52.6992468 33.1014102,55.7956522 C33.1014102,58.89208 35.316689,61.4022295 38.4782495,61.4022295 C41.6179229,61.4022295 43.8551115,58.89208 43.8551115,55.7956522 C43.8551115,52.6992468 41.849658,50.1890973 38.4782495,50.1890973 Z M110.512799,55.6581608 C110.547565,60.9898259 106.869609,64.9533352 101.43442,64.7192493 C99.4967547,64.6103498 97.6041972,63.8348577 96.296284,62.1275922 L96.2960405,62.2158971 C96.2959877,62.2351056 96.2959269,62.257308 96.2958584,62.2823661 L96.2950483,62.5812588 C96.292184,63.6458968 96.2850895,66.3605261 96.2818558,68.2945665 L96.2811818,68.7259206 C96.2810821,68.7951348 96.280989,68.8629176 96.2809031,68.9291309 L96.2802211,69.9215836 C95.9589639,72.4134367 92.5043478,71.0766672 92.5043478,71.0766672 L92.5043478,55.7815549 C92.7228468,50.9018868 95.5947989,46.9275345 101.508794,46.79388 C106.730105,46.6758849 110.480013,50.6265799 110.512799,55.6581608 Z M83.0263142,46.7913043 C88.314667,46.7913043 92.5043478,50.6310786 92.5043478,55.6722287 C92.5043478,60.7133339 88.7480901,64.8 82.9290384,64.8 C77.6406856,64.8 73.5478261,60.8369818 73.5478261,55.7958317 C73.5478261,50.4936048 77.7379615,46.7913043 83.0263142,46.7913043 Z M83.026087,50.1890973 C79.7212074,50.1890973 77.6493223,52.6992468 77.6493223,55.7956522 C77.6493223,58.89208 79.8646211,61.4022295 83.026087,61.4022295 C86.1657339,61.4022295 88.4030789,58.89208 88.4030789,55.7956522 C88.4030789,52.6992468 86.3975596,50.1890973 83.026087,50.1890973 Z M101.410656,50.2022727 C98.2431912,50.2022727 96.2575571,52.7077018 96.2575571,55.7983569 C96.2575571,58.8889896 98.3807157,61.3944188 101.410656,61.3944188 C104.419693,61.3944188 106.563755,58.8889672 106.563755,55.7983569 C106.563755,52.7077466 104.641712,50.2022727 101.410656,50.2022727 Z M111.46087,57.4773038 C111.46087,57.4773038 111.461753,50.592046 111.46087,48.8114508 C111.78361,46.3199794 115.251797,47.6565234 115.251797,47.6565234 L115.251797,56.9419291 C115.251797,59.8401786 117.211434,61.2564879 119.628562,61.2564879 C122.045911,61.2564879 124.005326,59.8890547 124.005326,56.9419291 C124.005326,56.9419291 124.016371,50.5974891 124.015709,48.8168491 C124.338228,46.3254001 127.806415,47.6619441 127.806415,47.6619441 L127.806415,53.6339894 C128.299914,60.9951284 135.254403,61.5447269 135.254403,61.5447269 C142.179071,62.515193 141.569818,59.6370807 141.569818,59.6370807 C141.390666,58.1884936 140.32348,57.8600471 138.480922,57.6209529 C137.337083,57.4725103 136.3439,57.3710397 136.3439,57.3710397 C128.921316,56.8956961 129.651624,51.9394986 129.651624,51.9394986 C129.745508,47.7464581 134.177498,47.1084032 134.177498,47.1084032 C138.092795,46.4026566 140.858288,47.0952994 140.858288,47.0952994 C146.951915,48.3787114 143.951381,51.3020933 143.447941,51.4683886 C143.447941,51.4683886 141.824962,49.9639142 138.028954,49.7477349 C133.352865,49.4459664 133.435483,51.6803791 133.435483,51.6803791 C133.283059,53.3099781 135.344974,53.6082522 135.344974,53.6082522 L140.356395,54.3182996 C146.276171,55.1537628 145.554921,59.4051097 145.554921,59.4051097 C145.16613,64.7218972 138.907487,64.7607607 138.907487,64.7607607 C130.348133,65.2637679 127.125811,60.7645909 127.125811,60.7645909 C125.926304,63.1806202 123.531267,64.7952786 119.551245,64.7952562 C114.806676,64.7952562 111.46087,62.1022549 111.46087,57.2708907 M165.028705,61.3020766 C163.601051,62.9942522 161.625663,63.8886305 159.315953,63.8886305 C157.18227,63.8886305 155.378423,63.1167889 154.099238,61.6565562 C152.897385,60.2845508 152.235362,58.358491 152.235362,56.2330747 L152.235362,55.9214763 L166.434783,55.9214763 L166.43051,55.7904114 C166.358305,53.584598 165.590751,51.5637457 164.269269,50.1001759 C162.874513,48.5555983 161.000598,47.7391304 158.850038,47.7391304 C154.457487,47.7391304 151.269565,51.3113655 151.269565,56.2330747 C151.269565,61.2771897 154.578398,64.8 159.315953,64.8 C161.91192,64.8 164.125713,63.8249629 165.718499,61.9800417 L165.795618,61.8907239 L165.116291,61.198385 L165.028705,61.3020766 Z M152.324444,55.0101723 C152.843766,51.1416724 155.392308,48.6506744 158.850038,48.6506744 C160.62825,48.6506744 162.199459,49.3117575 163.394049,50.5624695 C164.490157,51.7103404 165.180378,53.2854322 165.34551,55.0101723 L152.324444,55.0101723 Z M181.649127,49.9077606 C180.328414,48.5300473 178.410851,47.7396431 176.387856,47.7391304 C176.387406,47.7391304 176.386732,47.7391304 176.386057,47.7391304 C174.363287,47.7396431 172.445499,48.5300473 171.124337,49.9083846 C169.864995,51.238021 169.278261,52.9627481 169.278261,55.3362343 L169.278261,64.8 L170.294592,64.8 L170.294592,55.3362343 C170.294592,53.2377692 170.810962,51.711635 171.919012,50.533696 C173.00728,49.3847547 174.719374,48.6708232 176.386957,48.670578 C178.054764,48.6708232 179.766633,49.3847547 180.854676,50.5334285 C181.963175,51.711635 182.479321,53.2377469 182.479321,55.3362343 L182.479321,64.8 L183.495652,64.8 L183.495652,55.3362343 C183.495652,52.9627481 182.909143,51.238021 181.649127,49.9077606 Z M212.758168,47.7391304 C210.903832,47.7391304 209.146106,48.5295347 207.935081,49.9083846 C206.781116,51.238021 206.243478,52.9627481 206.243478,55.3362343 L206.243478,64.8 L207.174766,64.8 L207.174766,55.3362343 C207.174766,53.2377692 207.647929,51.711635 208.663261,50.533696 C209.660672,49.3844872 211.22971,48.670578 212.758168,48.670578 L212.878261,48.670578 L212.878261,47.7391304 L212.758168,47.7391304 Z M201.046096,61.3020766 C199.618442,62.9942522 197.643055,63.8886305 195.333344,63.8886305 C193.199661,63.8886305 191.3956,63.1167889 190.116629,61.6565562 C188.914777,60.2845508 188.252754,58.358491 188.252754,56.2330747 L188.252754,55.9214763 L202.452174,55.9214763 L202.447901,55.7904114 C202.375696,53.584598 201.608143,51.5637457 200.28666,50.1001759 C198.891905,48.5555983 197.017775,47.7391304 194.867429,47.7391304 C190.474878,47.7391304 187.286957,51.3113655 187.286957,56.2330747 C187.286957,61.2771897 190.595789,64.8 195.333344,64.8 C197.929312,64.8 200.143105,63.8249629 201.735677,61.9800417 L201.813009,61.8907239 L201.133682,61.198385 L201.046096,61.3020766 Z M188.341622,55.0101723 C188.860943,51.1416724 191.4097,48.6506744 194.867429,48.6506744 C196.645641,48.6506744 198.216851,49.3117575 199.41144,50.5624695 C200.507548,51.7103404 201.19777,53.2854322 201.362902,55.0101723 L188.341622,55.0101723 Z M245.936553,48.6869565 L239.774116,62.1977721 L232.867906,48.6869565 L231.834783,48.6869565 L239.247304,63.3430226 L234.281137,74.2782609 L235.34437,74.2782609 L247,48.6869565 L245.936553,48.6869565 Z M222.652815,47.7391304 C220.203211,47.7391304 217.95358,48.6515459 216.318067,50.3083522 C214.710959,51.9361384 213.826087,54.1364141 213.826087,56.5039525 C213.826087,58.8714684 214.710959,61.0717441 216.318067,62.6995304 C217.95358,64.3564711 220.203211,65.2688866 222.652815,65.2688866 C225.865887,65.2688866 228.456365,63.7241042 229.848154,61.006578 L229.848154,64.6124745 C229.848154,66.6382717 229.778061,68.9204308 228.943125,70.3660522 C227.826212,72.2842849 225.724555,73.3404333 223.025043,73.3404333 C219.427145,73.3404333 216.945014,71.4726214 215.912396,69.8730484 L215.834973,69.7529348 L215.000495,70.3640353 L215.073337,70.4675661 C215.702803,71.3614715 218.135685,74.2782609 223.025043,74.2782609 C226.106175,74.2782609 228.458656,73.1140998 229.828226,70.9108213 C230.803348,69.3110242 230.884895,66.8014111 230.884895,64.574939 L230.884895,56.6130632 L230.885811,56.5667208 C230.886498,56.5458578 230.886957,56.5249724 230.886957,56.5039749 C230.887186,51.3433911 227.500942,47.7391304 222.652815,47.7391304 Z M229.842886,56.5039525 C229.842886,61.1125962 226.886136,64.3312831 222.652815,64.3312831 C218.2887,64.3312831 214.870387,60.8931647 214.870387,56.5039525 C214.870387,52.1147178 218.2887,48.6768011 222.652815,48.6768011 C226.886136,48.6768011 229.842886,51.8954432 229.842886,56.5039749 L229.842886,56.5039525 Z" id="octopus"></path>
        </g>
    </g>
</svg>