<?xml version="1.0" encoding="UTF-8"?>
<svg width="275px" height="110px" viewBox="0 0 275 110" version="1.1" xmlns="http://www.w3.org/2000/svg" xmlns:xlink="http://www.w3.org/1999/xlink">
    <title>logo-project-disney</title>
    <g id="Symbols" stroke="none" stroke-width="1" fill="none" fill-rule="evenodd" fill-opacity="0.72">
        <g id="logo/projects/disney" fill="#000000" fill-rule="nonzero">
            <path d="M176.473573,52.387968 C174.664889,52.8082968 169.888106,53.0418128 169.888106,53.0418128 L169.30067,54.9410762 C169.30067,54.9410762 171.665873,54.7386957 173.397264,54.9099407 C173.397264,54.9099407 173.953782,54.8632375 174.015617,55.5326501 C174.046535,56.2176303 173.969241,56.933746 173.969241,56.933746 C173.969241,56.933746 173.922864,57.3540748 173.350887,57.463049 C172.686157,57.5720231 168.203092,57.7744036 168.203092,57.7744036 L167.476527,60.2341055 C167.476527,60.2341055 167.213726,60.7945439 167.816621,60.6388665 C168.373139,60.4831892 173.072628,59.5802607 173.690982,59.7048025 C174.340253,59.8604799 175.082277,60.7634084 174.865854,61.5729305 C174.618512,62.5536977 169.919024,65.5738379 167.074597,65.3714574 C167.074597,65.3714574 165.575089,65.4648638 164.322923,63.4254908 C163.117133,61.4795241 164.740311,57.8211068 164.740311,57.8211068 C164.740311,57.8211068 164.013746,56.1086562 164.554805,55.4859469 C164.554805,55.4859469 164.863982,55.2212954 165.791513,55.1434567 L166.950926,52.7460258 C166.950926,52.7460258 165.636924,52.8238645 164.863982,51.858665 C164.152875,50.924601 164.09104,50.51984 164.647558,50.2707563 C165.234994,49.9594016 170.676507,48.9786344 174.417547,49.1031763 C174.417547,49.1031763 175.731549,48.9474989 176.890962,51.2359557 C176.890962,51.2359557 177.416563,52.1700197 176.489032,52.387968 M162.375108,61.604066 C161.911343,62.7405105 160.628259,63.939226 159.082375,63.2075425 C157.505573,62.4602913 155.016699,57.3540748 155.016699,57.3540748 C155.016699,57.3540748 154.089168,55.4548114 153.903662,55.5170823 C153.903662,55.5170823 153.702697,55.1434567 153.594485,57.229533 C153.439897,59.3000415 153.625403,63.3320844 152.775167,63.9703614 C152.002225,64.5930707 151.074694,64.3284193 150.549093,63.5967358 C150.116246,62.8650524 149.93074,61.1058985 150.178081,58.0390551 C150.45634,54.9722117 151.151988,51.7029877 152.033142,50.6910851 C152.960673,49.6636147 153.702697,50.4108659 153.980956,50.6910851 C153.980956,50.6910851 155.171287,51.7808264 157.180937,55.0033471 L157.521032,55.594921 C157.521032,55.594921 159.345175,58.6617644 159.530681,58.6461967 C159.530681,58.6461967 159.68527,58.801874 159.80894,58.6773322 C159.994446,58.630629 159.932611,57.634294 159.932611,57.634294 C159.932611,57.634294 159.592517,54.3183669 157.892044,48.7139829 C157.892044,48.7139829 157.644702,47.9978672 157.81475,47.312887 C157.969338,46.6901776 158.634068,47.0015323 158.634068,47.0015323 C158.634068,47.0015323 161.200236,48.2469509 162.452403,52.4502389 C163.68911,56.6535268 162.854332,60.4676215 162.390567,61.604066 M149.79161,50.8156269 C149.544268,51.2515234 149.436057,51.858665 148.369396,52.0299101 C148.369396,52.0299101 138.011971,52.7615936 137.50183,53.493277 C137.50183,53.493277 137.161735,53.9291735 137.718253,54.0381477 C138.305689,54.1626895 140.655434,54.4740442 141.76847,54.5363151 C142.97426,54.5363151 147.024477,54.5674506 148.508526,56.4044431 C148.508526,56.4044431 149.358762,57.2762362 149.327845,59.2533383 C149.296927,61.2771436 148.941374,61.9932593 148.152973,62.7249428 C147.333654,63.409923 140.315339,66.5857406 135.785898,61.7286079 C135.785898,61.7286079 133.714413,59.3934479 136.512464,57.6187263 C136.512464,57.6187263 138.522113,56.3733076 143.669908,57.8211068 C143.669908,57.8211068 145.215792,58.3815452 145.153957,58.9575514 C145.061204,59.5802607 143.870873,60.20297 142.139483,60.1718345 C140.469928,60.1251313 139.23322,59.3156092 139.480562,59.4557188 C139.712444,59.5335575 137.671877,58.4593839 137.038064,59.1910673 C136.419711,59.8760476 136.574299,60.2808087 137.192653,60.7011375 C138.738537,61.604066 144.813862,61.2771436 146.622547,59.2377705 C146.622547,59.2377705 147.349113,58.4126807 146.251535,57.7432682 C145.169416,57.1205588 142.015812,56.7313655 140.794563,56.6846623 C139.63515,56.6223914 135.291215,56.6846623 134.641944,55.5482178 C134.641944,55.5482178 134.02359,54.7386957 134.703779,52.5280776 C135.414886,50.1929176 140.469928,49.2899891 142.665083,49.1031763 C142.665083,49.1031763 148.694032,48.8540925 149.822528,50.0995112 C149.822528,50.0995112 149.977116,50.3797304 149.79161,50.8000592 M132.694129,64.4996644 C131.967564,65.044535 130.421679,64.811019 129.973373,64.1883097 C129.540525,63.643439 129.385937,61.4950919 129.463231,58.1168938 C129.571443,54.660857 129.61782,50.4264336 130.390762,49.7414533 C131.163704,49.0720408 131.627469,49.6636147 131.936646,50.1150789 C132.245823,50.5821109 132.647753,51.0958461 132.709588,52.1700197 C132.802341,53.259761 133.065142,58.864145 133.065142,58.864145 C133.065142,58.864145 133.405236,63.9703614 132.709588,64.4996644 M134.240014,46.2854166 C132.106693,47.0171 130.653562,46.783584 129.416855,46.2387134 C128.875795,47.2194806 128.551159,47.5152675 128.14923,47.5775384 C127.530876,47.6398094 126.989816,46.6434744 126.912522,46.3321198 C126.788851,46.0986038 126.495133,45.678275 126.850687,44.7286433 C125.644897,43.6389019 125.552144,42.175535 125.768568,41.1947678 C126.046827,40.0427556 128.087394,35.7149258 134.270931,35.2011906 C134.270931,35.2011906 137.300865,34.9832423 137.826465,36.6022866 L137.919218,36.6022866 C137.919218,36.6022866 140.856399,36.6022866 140.794563,39.2488012 C140.794563,41.8953158 137.548206,45.1956753 134.240014,46.3321198 M136.991688,38.7506337 C135.043874,39.0619884 132.044858,41.6773676 130.607186,43.8412825 C132.8178,44.2460435 136.682511,44.0903662 138.413901,40.5720585 C138.413901,40.5720585 139.23322,38.3614404 136.991688,38.7506337 M128.442948,40.4630844 C127.824594,41.474987 127.793676,42.0821286 128.087394,42.4868897 C128.81396,41.3971484 130.097044,39.6846977 132.029399,38.3458727 C130.54535,38.50155 129.293184,39.1242593 128.442948,40.4630844 M181.111226,64.3906902 C179.689013,67.9089979 178.483223,71.4740088 177.787575,76.8137413 C177.787575,76.8137413 177.632987,77.8567794 176.78275,77.5142893 C175.932514,77.2029346 174.541218,75.8018386 174.232041,73.8247365 C173.922864,71.2404928 175.066819,66.8815275 177.401104,61.8687174 C176.720915,60.7789761 176.241691,59.1599319 176.628162,56.8870428 C176.628162,56.8870428 177.246515,52.6837549 181.420403,48.885228 C181.420403,48.885228 181.915086,48.4648992 182.193345,48.6050088 C182.53344,48.7606861 182.39431,50.0995112 182.116051,50.7844914 C181.86871,51.4383362 180.013648,54.6764247 180.013648,54.6764247 C180.013648,54.6764247 178.854235,56.8870428 179.178871,58.6150612 C181.374027,55.2212954 186.367233,48.3403573 189.459002,50.51984 C191.422275,51.920936 191.422275,56.4355786 189.953685,59.0509577 C188.794271,61.1214663 185.516997,65.4025929 181.142144,64.406258 M187.573023,53.8201994 C186.429068,55.0656181 184.388501,57.4319135 182.780781,60.6388665 C184.481254,60.4520537 186.13535,59.502422 186.645492,59.0198223 C187.464811,58.2881388 189.35079,56.3110367 189.057072,53.6956575 C189.057072,53.6956575 188.871566,52.325697 187.573023,53.8201994 M118.317405,66.2276827 C112.844975,67.9089979 107.681721,67.1306113 104.868212,66.3833601 C104.790917,67.5353723 104.667247,68.017972 104.481741,68.2047848 C104.265317,68.4538686 102.472091,69.481339 101.482725,68.017972 C101.049877,67.317424 100.833454,66.0564377 100.709783,64.9044254 C94.3716572,62.008827 91.434477,57.7432682 91.3417239,57.5875908 C91.1871355,57.4319135 89.7494631,55.9218434 91.1871355,54.0537154 C92.5320548,52.3724002 96.9842017,50.6755173 100.972583,50.0061048 C101.127172,46.5812035 101.498184,43.9346889 101.977408,42.7671089 C102.549385,41.3660129 103.275951,42.6114315 103.925222,43.5454955 C104.450823,44.2460435 104.775459,47.250616 104.806376,49.6480469 C107.403462,49.5235051 108.980264,49.7103179 111.871068,50.2707563 C115.673943,50.924601 118.209193,52.8861354 118.008228,55.0967535 C117.822722,57.2762362 115.84399,58.1791647 115.071048,58.2414356 C114.298106,58.3037066 113.061399,57.7277004 113.061399,57.7277004 C112.195703,57.3229394 112.984104,56.9493138 113.988929,56.5134172 C115.101966,55.9685466 114.854624,55.4236759 114.854624,55.4236759 C114.452694,54.1782573 109.521323,53.3531674 104.62087,53.3531674 C104.62087,56.0775207 104.729082,60.5921633 104.806376,63.2231102 C108.238239,63.876955 110.804407,63.7368454 110.804407,63.7368454 C110.804407,63.7368454 123.32607,63.3787876 123.681624,55.3302695 C124.068095,47.2661838 111.159961,39.5445881 101.652772,37.1160217 C92.1610426,34.6096167 86.7813652,36.3843383 86.3175999,36.6178543 C85.807458,36.866938 86.2712233,36.9603444 86.2712233,36.9603444 C86.2712233,36.9603444 86.7813652,37.0381831 87.7088958,37.3495377 C88.6364263,37.6608924 87.8944019,38.1279244 87.8944019,38.1279244 C86.2712233,38.6883628 84.4625387,38.3614404 84.1069853,37.6141892 C83.7514319,36.8825058 84.3388679,36.2130932 85.0345159,35.232326 C85.6837873,34.2204234 86.4258118,34.2515588 86.4258118,34.2515588 C98.1745326,30.1261096 112.520339,37.5207828 112.520339,37.5207828 C125.938615,44.3394499 128.226524,52.3568325 127.979182,55.4703791 C127.762758,58.5372226 126.587886,63.7212777 118.317405,66.2432505 M92.5011371,55.0967535 C91.1716766,55.7194629 92.0992072,56.7157978 92.0992072,56.7157978 C94.6035398,59.4090156 97.6643908,61.1058985 100.601571,62.1645044 C100.941666,57.4941844 100.910748,55.828437 100.910748,53.4777093 C96.3658479,53.7890639 93.7378446,54.5363151 92.5011371,55.0967535" id="Disney"></path>
        </g>
    </g>
</svg>