<?xml version="1.0" encoding="UTF-8"?>
<svg width="275px" height="110px" viewBox="0 0 275 110" version="1.1" xmlns="http://www.w3.org/2000/svg" xmlns:xlink="http://www.w3.org/1999/xlink">
    <title>logo-project-mands</title>
    <g id="Symbols" stroke="none" stroke-width="1" fill="none" fill-rule="evenodd" fill-opacity="0.72">
        <g id="logo/projects/m-and-s" fill="#000000" fill-rule="nonzero">
            <path d="M178.782737,45.9493739 L176.25446,46.8735519 C175.252559,43.6625192 172.421221,41.594914 168.587982,41.594914 C164.404632,41.594914 161.660476,43.7055365 161.660476,47.270421 C161.660476,54.9233358 179,50.8769352 179,61.6534603 C179,66.8016587 174.903831,70.4081728 168.805245,70.4081728 C163.141185,70.4081728 159.742472,67.6814317 157.389943,63.3255841 L159.742472,61.8740974 C161.310364,65.2183448 164.185985,67.8132588 168.543699,67.8132588 C173.597486,67.8132588 176.211561,65.4819992 176.211561,61.610443 C176.211561,53.9117357 158.872036,57.6958696 158.872036,47.2246284 C158.872036,41.0218127 164.404632,39 168.499416,39 C173.118677,39 177.300644,41.1106226 178.782737,45.9493739 L178.782737,45.9493739 Z M136.12723,46.0381838 C136.12723,47.7533248 137.260596,49.2048115 139.74459,51.889923 C142.661726,50.1720067 144.275284,48.3694434 144.275284,46.0381838 C144.275284,43.7499415 142.750292,41.9459906 140.134833,41.9459906 C137.696505,41.9459906 136.12723,43.8831563 136.12723,46.0381838 Z M139.047134,55.1439729 C135.08243,57.3434053 133.340175,59.1029513 133.340175,61.8296925 C133.340175,64.9519152 136.12723,67.5496045 139.700307,67.5496045 C142.92604,67.5496045 144.579729,66.0509376 146.364884,63.1507396 L139.04575,55.1439729 L139.047134,55.1439729 Z M153.16231,70.54 L148.109907,65.0865177 C146.279086,67.989491 143.796475,70.1001135 139.700307,70.1001135 C134.427874,70.1001135 130.550352,66.4047895 130.550352,61.8740974 C130.550352,58.0913511 132.861366,55.7600915 137.303495,53.2081948 C134.777985,50.6576858 133.383074,48.5456756 133.383074,46.0381838 C133.383074,42.3872647 136.433059,39.4842914 140.136217,39.4842914 C144.056637,39.4842914 146.976541,42.3872647 146.976541,46.0381838 C146.976541,49.5572757 144.232385,51.9315526 141.485461,53.7368912 L147.761179,60.6418602 L151.462953,54.5722592 L153.685401,55.9793409 L149.590617,62.7094654 L155.211778,68.7374368 L153.163693,70.54 L153.16231,70.54 Z M123.579946,39.3940939 L123.579946,70.0987259 L120.791507,70.0987259 L120.791507,45.0279713 L110.771116,64.6466312 L108.80883,64.6466312 L98.7898229,45.069601 L98.7898229,70.1001135 L96,70.1001135 L96,39.3940939 L98.919904,39.3940939 L109.810731,60.5974552 L120.704325,39.3940939 L123.579946,39.3940939 Z" id="m&amp;s"></path>
        </g>
    </g>
</svg>